<?xml version="1.0" encoding="utf-8"?>
<!-- Generator: Adobe Illustrator 25.2.3, SVG Export Plug-In . SVG Version: 6.00 Build 0)  -->
<svg version="1.1" id="Layer_1" xmlns="http://www.w3.org/2000/svg" xmlns:xlink="http://www.w3.org/1999/xlink" x="0px" y="0px"
	 viewBox="0 0 18.3 21.5" style="enable-background:new 0 0 18.3 21.5;" xml:space="preserve">
<style type="text/css">
	.st0{fill:#ED1A23;stroke:#ED1A23;stroke-width:0.5;}
</style>
<g id="그룹_170" transform="translate(-221.75 -496.75)">
	<g id="그룹_159" transform="translate(222 497)">
		<path id="패스_597" class="st0" d="M8.9,5.6C4.5,5.6,0,4.7,0,2.8S4.5,0,8.9,0s8.9,1,8.9,2.8S13.4,5.6,8.9,5.6z M8.9,0.9
			c-5.3,0-8,1.2-8,1.9s2.8,1.9,8,1.9s8-1.2,8-1.9S14.2,0.9,8.9,0.9z"/>
		<path id="패스_598" class="st0" d="M8.9,10.8C4.5,10.8,0,9.8,0,8V5.5C0,5.2,0.2,5,0.5,5s0.5,0.2,0.5,0.5V8c0,0.7,2.8,1.9,8,1.9
			s8-1.2,8-1.9V5.5c0-0.3,0.2-0.5,0.5-0.5s0.5,0.2,0.5,0.5V8C17.8,9.8,13.4,10.8,8.9,10.8z"/>
		<path id="패스_599" class="st0" d="M8.9,15.9c-4.4,0-8.9-1-8.9-2.8v-2.5c0-0.3,0.2-0.5,0.5-0.5s0.5,0.2,0.5,0.5v2.5
			c0,0.7,2.8,1.9,8,1.9s8-1.2,8-1.9v-2.5c0-0.3,0.2-0.5,0.5-0.5s0.5,0.2,0.5,0.5v2.5C17.8,14.9,13.4,15.9,8.9,15.9z"/>
		<path id="패스_600" class="st0" d="M8.9,21C4.5,21,0,20,0,18.2v-2.5c0-0.3,0.2-0.5,0.5-0.5s0.5,0.2,0.5,0.5v2.5
			c0,0.7,2.8,1.9,8,1.9s8-1.2,8-1.9v-2.5c0-0.3,0.2-0.5,0.5-0.5s0.5,0.2,0.5,0.5v2.5C17.8,20,13.4,21,8.9,21z"/>
		<path id="패스_601" class="st0" d="M9.6,7.8c0,0.4-0.3,0.7-0.7,0.7c-0.4,0-0.7-0.3-0.7-0.7s0.3-0.7,0.7-0.7
			C9.3,7.1,9.6,7.4,9.6,7.8z"/>
		<path id="패스_602" class="st0" d="M6.8,7.6c0,0.4-0.3,0.7-0.7,0.7c-0.4,0-0.7-0.3-0.7-0.7s0.3-0.7,0.7-0.7
			C6.6,6.9,6.8,7.2,6.8,7.6z"/>
		<path id="패스_603" class="st0" d="M11,7.6c0,0.4,0.3,0.7,0.7,0.7c0.4,0,0.7-0.3,0.7-0.7S12,6.9,11.7,6.9
			C11.3,6.9,11,7.2,11,7.6z"/>
		<path id="패스_604" class="st0" d="M9.6,13c0,0.4-0.3,0.7-0.7,0.7c-0.4,0-0.7-0.3-0.7-0.7s0.3-0.7,0.7-0.7
			C9.3,12.3,9.6,12.6,9.6,13z"/>
		<path id="패스_605" class="st0" d="M6.8,12.8c0,0.4-0.3,0.7-0.7,0.7c-0.4,0-0.7-0.3-0.7-0.7s0.3-0.7,0.7-0.7
			C6.6,12.1,6.8,12.4,6.8,12.8z"/>
		<path id="패스_606" class="st0" d="M11,12.8c0,0.4,0.3,0.7,0.7,0.7c0.4,0,0.7-0.3,0.7-0.7s-0.3-0.7-0.7-0.7
			C11.3,12.1,11,12.4,11,12.8z"/>
		<path id="패스_607" class="st0" d="M9.6,18.1c0,0.4-0.3,0.7-0.7,0.7c-0.4,0-0.7-0.3-0.7-0.7s0.3-0.7,0.7-0.7
			C9.3,17.4,9.6,17.7,9.6,18.1z"/>
		<path id="패스_608" class="st0" d="M6.8,17.9c0,0.4-0.3,0.7-0.7,0.7c-0.4,0-0.7-0.3-0.7-0.7s0.3-0.7,0.7-0.7
			C6.6,17.2,6.8,17.5,6.8,17.9z"/>
		<path id="패스_609" class="st0" d="M11,17.9c0,0.4,0.3,0.7,0.7,0.7c0.4,0,0.7-0.3,0.7-0.7s-0.3-0.7-0.7-0.7
			C11.3,17.2,11,17.5,11,17.9z"/>
	</g>
</g>
</svg>
