<svg xmlns="http://www.w3.org/2000/svg" width="25.602" height="20.621" viewBox="0 0 25.602 20.621">
  <g id="Group_161" data-name="Group 161" transform="translate(822.318 -494.599)">
    <path id="Path_610" data-name="Path 610" d="M-808.56,503.887a.66.66,0,0,1-.66.66.66.66,0,0,1-.66-.66.66.66,0,0,1,.66-.66A.66.66,0,0,1-808.56,503.887Z" transform="translate(-9.658 -6.638)" fill="#fff" stroke="#fff" stroke-width="0.5"/>
    <path id="Path_611" data-name="Path 611" d="M-795.5,503.887a.66.66,0,0,1-.66.66.66.66,0,0,1-.66-.66.66.66,0,0,1,.66-.66A.66.66,0,0,1-795.5,503.887Z" transform="translate(-20.008 -6.638)" fill="#fff" stroke="#fff" stroke-width="0.5"/>
    <path id="Path_612" data-name="Path 612" d="M-782.435,503.887a.66.66,0,0,1-.66.66.66.66,0,0,1-.659-.66.66.66,0,0,1,.659-.66A.66.66,0,0,1-782.435,503.887Z" transform="translate(-30.359 -6.638)" fill="#fff" stroke="#fff" stroke-width="0.5"/>
    <rect id="Rectangle_220" data-name="Rectangle 220" width="19.98" height="0.83" transform="translate(-821.224 498.726)" fill="#fff" stroke="#fff" stroke-width="0.5"/>
    <path id="Path_613" data-name="Path 613" d="M-810.307,511.779a1.88,1.88,0,0,1,.055-.441h-10.282a.7.7,0,0,1-.7-.62V496.3a.614.614,0,0,1,.18-.439.615.615,0,0,1,.438-.182h18.729a.631.631,0,0,1,.629.625v5.146a1.862,1.862,0,0,1,.175.425,1.848,1.848,0,0,1,.656-.225V496.3a1.463,1.463,0,0,0-1.459-1.451H-820.62a1.437,1.437,0,0,0-1.026.427,1.437,1.437,0,0,0-.421,1.029v14.417a1.527,1.527,0,0,0,1.533,1.446h10.269A1.89,1.89,0,0,1-810.307,511.779Z" fill="#fff" stroke="#fff" stroke-width="0.5"/>
    <path id="Path_614" data-name="Path 614" d="M-758.615,540.243h-1.642a.9.9,0,0,1-.9-.9v-.332a.557.557,0,0,0-.372-.49.56.56,0,0,0-.6.086l-.236.236a.892.892,0,0,1-.634.262.89.89,0,0,1-.633-.262l-1.161-1.161a.9.9,0,0,1,0-1.267l.236-.236a.546.546,0,0,0,.086-.6.556.556,0,0,0-.489-.372h-.332a.9.9,0,0,1-.9-.9v-1.642a.889.889,0,0,1,.262-.633.89.89,0,0,1,.634-.263h.333a.556.556,0,0,0,.489-.371.546.546,0,0,0-.086-.6l-.236-.236a.9.9,0,0,1,0-1.267l1.161-1.161a.891.891,0,0,1,.634-.262.891.891,0,0,1,.633.262l.236.236a.56.56,0,0,0,.6.086.556.556,0,0,0,.372-.489v-.333a.9.9,0,0,1,.9-.9h1.642a.9.9,0,0,1,.9.9v.333a.556.556,0,0,0,.371.489.561.561,0,0,0,.6-.086l.235-.235a.89.89,0,0,1,.634-.263.891.891,0,0,1,.633.262l1.161,1.161a.889.889,0,0,1,.262.633.891.891,0,0,1-.263.634l-.235.235a.546.546,0,0,0-.086.6.557.557,0,0,0,.49.372h.332a.9.9,0,0,1,.9.9v1.642a.888.888,0,0,1-.262.633.89.89,0,0,1-.634.263h-.332a.557.557,0,0,0-.49.372.546.546,0,0,0,.086.6l.235.236a.889.889,0,0,1,.262.633.889.889,0,0,1-.262.634l-1.161,1.161a.89.89,0,0,1-.633.262.89.89,0,0,1-.633-.262l-.236-.235a.559.559,0,0,0-.6-.086.556.556,0,0,0-.372.489v.332A.9.9,0,0,1-758.615,540.243Zm-3.158-2.6a1.466,1.466,0,0,1,.567.114,1.382,1.382,0,0,1,.883,1.256v.332a.066.066,0,0,0,.065.066h1.642a.066.066,0,0,0,.066-.066v-.332a1.381,1.381,0,0,1,.883-1.256,1.483,1.483,0,0,1,.567-.114,1.314,1.314,0,0,1,.939.38l.235.235a.057.057,0,0,0,.093,0l1.161-1.161a.064.064,0,0,0,.019-.046.064.064,0,0,0-.019-.047l-.235-.236a1.371,1.371,0,0,1-.265-1.507,1.382,1.382,0,0,1,1.256-.883h.332a.064.064,0,0,0,.046-.019.064.064,0,0,0,.019-.046v-1.642a.066.066,0,0,0-.066-.065h-.332a1.382,1.382,0,0,1-1.257-.884,1.37,1.37,0,0,1,.266-1.507l.235-.235a.063.063,0,0,0,.019-.046.063.063,0,0,0-.019-.046l-1.161-1.162a.057.057,0,0,0-.093,0l-.236.236a1.316,1.316,0,0,1-.94.38,1.471,1.471,0,0,1-.568-.114,1.382,1.382,0,0,1-.883-1.256v-.333a.066.066,0,0,0-.066-.066h-1.642a.066.066,0,0,0-.066.066v.333a1.382,1.382,0,0,1-.883,1.256,1.493,1.493,0,0,1-.567.114,1.316,1.316,0,0,1-.94-.38l-.236-.236a.057.057,0,0,0-.093,0l-1.161,1.161a.066.066,0,0,0,0,.093l.236.236a1.37,1.37,0,0,1,.265,1.507,1.381,1.381,0,0,1-1.256.883h-.333a.066.066,0,0,0-.047.019.065.065,0,0,0-.019.046v1.642a.066.066,0,0,0,.066.065h.332a1.381,1.381,0,0,1,1.256.884,1.371,1.371,0,0,1-.265,1.507l-.235.236a.065.065,0,0,0,0,.093l1.161,1.161a.057.057,0,0,0,.093,0l.236-.236A1.316,1.316,0,0,1-761.772,537.644Z" transform="translate(-44.28 -25.273)" fill="#fff" stroke="#fff" stroke-width="0.5"/>
    <g id="Group_161-2" data-name="Group 161" transform="translate(-806.96 504.835)">
      <path id="Path_615" data-name="Path 615" d="M-745.919,549.716a3.389,3.389,0,0,1-3.385-3.385,3.389,3.389,0,0,1,3.385-3.386,3.39,3.39,0,0,1,3.385,3.386A3.389,3.389,0,0,1-745.919,549.716Zm0-5.94a2.558,2.558,0,0,0-2.555,2.556,2.557,2.557,0,0,0,2.555,2.554,2.558,2.558,0,0,0,2.555-2.554A2.558,2.558,0,0,0-745.919,543.776Z" transform="translate(749.304 -542.945)" fill="#fff" stroke="#fff" stroke-width="0.5"/>
    </g>
  </g>
</svg>
