<svg xmlns="http://www.w3.org/2000/svg" width="20.913" height="22.465" viewBox="0 0 20.913 22.465">
  <g id="Group_141" data-name="Group 141" transform="translate(-63.922 -137.75)">
    <g id="Group_139" data-name="Group 139" transform="translate(64.172 138)">
      <g id="Group_134" data-name="Group 134" transform="translate(7.438 7.217)">
        <rect id="Rectangle_216" data-name="Rectangle 216" width="4.547" height="0.876" fill="#fff" stroke="#fff" stroke-width="0.5"/>
      </g>
      <g id="Group_135" data-name="Group 135" transform="translate(7.438 10.668)">
        <rect id="Rectangle_217" data-name="Rectangle 217" width="6.701" height="0.876" transform="translate(0 0)" fill="#fff" stroke="#fff" stroke-width="0.5"/>
      </g>
      <g id="Group_136" data-name="Group 136" transform="translate(7.438 14.119)">
        <rect id="Rectangle_218" data-name="Rectangle 218" width="6.701" height="0.876" transform="translate(0 0)" fill="#fff" stroke="#fff" stroke-width="0.5"/>
      </g>
      <g id="Group_137" data-name="Group 137" transform="translate(0 3.45)">
        <path id="Path_595" data-name="Path 595" d="M-460.932-22.277h-13.407a2.108,2.108,0,0,1-2.105-2.105v-1.966h3.959V-40.792h13.658v16.41A2.108,2.108,0,0,1-460.932-22.277Zm-1.854-2.105a1.231,1.231,0,0,0,1.229,1.229h.625a1.23,1.23,0,0,0,1.229-1.229V-39.916h-11.905v13.567h8.822Zm-12.781,0a1.23,1.23,0,0,0,1.229,1.229h11.073a2.1,2.1,0,0,1-.4-1.229v-1.09h-11.905Z" transform="translate(476.444 40.792)" fill="#fff" stroke="#fff" stroke-width="0.5"/>
      </g>
      <g id="Group_138" data-name="Group 138" transform="translate(6.755 0)">
        <path id="Path_596" data-name="Path 596" d="M-431.95-40.133h-.876V-55.666h-11.905v.921h-.876v-1.8h13.658Z" transform="translate(445.607 56.542)" fill="#fff" stroke="#fff" stroke-width="0.5"/>
      </g>
    </g>
  </g>
</svg>
