<?xml version="1.0" encoding="utf-8"?>
<!-- Generator: Adobe Illustrator 25.2.3, SVG Export Plug-In . SVG Version: 6.00 Build 0)  -->
<svg version="1.1" id="Layer_1" xmlns="http://www.w3.org/2000/svg" xmlns:xlink="http://www.w3.org/1999/xlink" x="0px" y="0px"
	 viewBox="0 0 21.5 21.9" style="enable-background:new 0 0 21.5 21.9;" xml:space="preserve">
<style type="text/css">
	.st0{fill:#ED1A23;stroke:#ED1A23;stroke-width:0.5;}
</style>
<g id="Group_168" transform="translate(821.226 -263.719)">
	<path id="Path_620" class="st0" d="M-802.1,271.2c0,0.4-0.3,0.7-0.7,0.7l0,0c-0.4,0-0.7-0.3-0.7-0.7v0c0-0.4,0.3-0.7,0.7-0.7l0,0
		C-802.5,270.5-802.1,270.8-802.1,271.2L-802.1,271.2z"/>
	<path id="Path_621" class="st0" d="M-804.7,271.2c0,0.4-0.3,0.7-0.7,0.7c-0.4,0-0.7-0.3-0.7-0.7v0c0-0.4,0.3-0.7,0.7-0.7l0,0
		C-805,270.5-804.7,270.8-804.7,271.2z"/>
	<path id="Path_622" class="st0" d="M-807.3,271.2c0,0.4-0.3,0.7-0.7,0.7l0,0c-0.4,0-0.7-0.3-0.7-0.7v0c0-0.4,0.3-0.7,0.7-0.7l0,0
		C-807.6,270.5-807.3,270.8-807.3,271.2L-807.3,271.2z"/>
	<path id="Path_623" class="st0" d="M-801.4,268.2h-15.8c-0.8,0-1.4,0.6-1.4,1.4v9.1c0,0.4-0.3,0.7-0.7,0.7c-0.4,0-0.7-0.3-0.7-0.7
		v-13.5c0-0.2,0.2-0.4,0.4-0.4h5.8c0.3,0,0.6,0.2,0.7,0.5l0.2,0.8c0.2,0.7,0.9,1.2,1.6,1.1h8.3c0.2,0,0.4-0.2,0.4-0.4c0,0,0,0,0,0
		c0-0.2-0.2-0.4-0.4-0.4l0,0h-8.3c-0.6,0-0.7-0.2-0.8-0.5l-0.2-0.8c-0.2-0.7-0.8-1.1-1.5-1.1h-5.8c-0.7,0-1.3,0.6-1.3,1.3v13.5
		c0,0.9,0.7,1.6,1.6,1.6h18c0.8,0,1.4-0.6,1.4-1.4v-9.2C-800,268.9-800.6,268.2-801.4,268.2z M-800.8,278.9c0,0.3-0.3,0.6-0.6,0.6
		H-818c0.1-0.2,0.2-0.5,0.2-0.7v-9.1c0-0.3,0.3-0.6,0.6-0.6h15.8c0.3,0,0.6,0.3,0.6,0.6V278.9z"/>
	<path id="Path_624" class="st0" d="M-809.9,285.4c-1,0-1.9-0.8-1.9-1.9c0-1,0.8-1.9,1.9-1.9c1,0,1.9,0.8,1.9,1.9
		C-808,284.5-808.9,285.4-809.9,285.4z M-809.9,282.5c-0.6,0-1,0.5-1,1c0,0.6,0.5,1,1,1c0.6,0,1-0.5,1-1
		C-808.9,282.9-809.3,282.5-809.9,282.5z"/>
	<path id="Path_625" class="st0" d="M-811.8,283.5c0-0.1,0-0.3,0-0.4h-8.8c-0.2,0-0.4,0.2-0.4,0.4c0,0,0,0,0,0
		c0,0.2,0.2,0.4,0.4,0.4c0,0,0,0,0,0h8.8C-811.7,283.8-811.8,283.6-811.8,283.5z"/>
	<path id="Path_626" class="st0" d="M-800.4,283.1h-7.7c0,0.1,0,0.3,0,0.4c0,0.1,0,0.3,0,0.4h7.7c0.2,0,0.4-0.2,0.4-0.4c0,0,0,0,0,0
		C-800,283.3-800.2,283.1-800.4,283.1L-800.4,283.1z"/>
	<path id="Path_627" class="st0" d="M-809.9,281.6c0.1,0,0.3,0,0.4,0.1v-1.4h-0.8v1.4C-810.2,281.7-810,281.6-809.9,281.6z"/>
</g>
</svg>
