<svg xmlns="http://www.w3.org/2000/svg" width="21.5" height="21.895" viewBox="0 0 21.5 21.895">
  <g id="Group_168" data-name="Group 168" transform="translate(821.226 -263.719)">
    <path id="Path_620" data-name="Path 620" d="M-737.184,295.37a.687.687,0,0,1-.687.687.687.687,0,0,1-.687-.687.687.687,0,0,1,.687-.687A.687.687,0,0,1-737.184,295.37Z" transform="translate(-64.959 -24.208)" fill="#fff" stroke="#fff" stroke-width="0.5"/>
    <path id="Path_621" data-name="Path 621" d="M-749.357,295.37a.687.687,0,0,1-.686.687.687.687,0,0,1-.687-.687.687.687,0,0,1,.687-.687A.687.687,0,0,1-749.357,295.37Z" transform="translate(-55.366 -24.208)" fill="#fff" stroke="#fff" stroke-width="0.5"/>
    <path id="Path_622" data-name="Path 622" d="M-761.53,295.37a.687.687,0,0,1-.687.687.687.687,0,0,1-.687-.687.687.687,0,0,1,.687-.687A.687.687,0,0,1-761.53,295.37Z" transform="translate(-45.771 -24.208)" fill="#fff" stroke="#fff" stroke-width="0.5"/>
    <path id="Path_623" data-name="Path 623" d="M-801.4,268.214h-15.836a1.429,1.429,0,0,0-1.428,1.427v9.092a.732.732,0,0,1-.731.731.732.732,0,0,1-.731-.731V265.255a.44.44,0,0,1,.441-.439h5.833a.711.711,0,0,1,.684.52l.231.839a1.5,1.5,0,0,0,1.606,1.086H-803a.424.424,0,0,0,.424-.424.424.424,0,0,0-.424-.424h-8.338c-.586,0-.73-.248-.789-.464l-.231-.839a1.561,1.561,0,0,0-1.5-1.143h-5.833a1.289,1.289,0,0,0-1.288,1.286v13.478a1.58,1.58,0,0,0,1.578,1.578H-801.4a1.429,1.429,0,0,0,1.427-1.427v-9.243A1.429,1.429,0,0,0-801.4,268.214Zm.58,10.67a.581.581,0,0,1-.58.58H-818a1.566,1.566,0,0,0,.181-.731v-9.092a.581.581,0,0,1,.58-.58H-801.4a.581.581,0,0,1,.58.58Z" transform="translate(0)" fill="#fff" stroke="#fff" stroke-width="0.5"/>
    <path id="Path_624" data-name="Path 624" d="M-775.612,351.11a1.864,1.864,0,0,1-1.862-1.862,1.864,1.864,0,0,1,1.862-1.862,1.865,1.865,0,0,1,1.862,1.862A1.864,1.864,0,0,1-775.612,351.11Zm0-2.878a1.016,1.016,0,0,0-1.015,1.015,1.016,1.016,0,0,0,1.015,1.015,1.016,1.016,0,0,0,1.015-1.015A1.016,1.016,0,0,0-775.612,348.232Z" transform="translate(-34.287 -65.746)" fill="#fff" stroke="#fff" stroke-width="0.5"/>
    <path id="Path_625" data-name="Path 625" d="M-811.761,354.6a1.862,1.862,0,0,1,.05-.424h-8.842a.424.424,0,0,0-.424.424.423.423,0,0,0,.424.424h8.842A1.86,1.86,0,0,1-811.761,354.6Z" transform="translate(0 -71.099)" fill="#fff" stroke="#fff" stroke-width="0.5"/>
    <path id="Path_626" data-name="Path 626" d="M-752.443,354.177h-7.687a1.863,1.863,0,0,1,.05.424,1.86,1.86,0,0,1-.05.424h7.687a.424.424,0,0,0,.424-.424A.424.424,0,0,0-752.443,354.177Z" transform="translate(-47.957 -71.099)" fill="#fff" stroke="#fff" stroke-width="0.5"/>
    <path id="Path_627" data-name="Path 627" d="M-770.259,342.446a1.853,1.853,0,0,1,.424.051v-1.378h-.847V342.5A1.85,1.85,0,0,1-770.259,342.446Z" transform="translate(-39.639 -60.807)" fill="#fff" stroke="#fff" stroke-width="0.5"/>
  </g>
</svg>
