<?xml version="1.0" encoding="utf-8"?>
<!-- Generator: Adobe Illustrator 25.2.3, SVG Export Plug-In . SVG Version: 6.00 Build 0)  -->
<svg version="1.1" id="Layer_1" xmlns="http://www.w3.org/2000/svg" xmlns:xlink="http://www.w3.org/1999/xlink" x="0px" y="0px"
	 viewBox="0 0 20.9 22.5" style="enable-background:new 0 0 20.9 22.5;" xml:space="preserve">
<style type="text/css">
	.st0{fill:#ED1A23;stroke:#ED1A23;stroke-width:0.5;}
</style>
<g id="Group_141" transform="translate(-63.922 -137.75)">
	<g id="Group_139" transform="translate(64.172 138)">
		<g id="Group_134" transform="translate(7.438 7.217)">
			<rect id="Rectangle_216" x="0" y="0" class="st0" width="4.5" height="0.9"/>
		</g>
		<g id="Group_135" transform="translate(7.438 10.668)">
			<rect id="Rectangle_217" x="0" y="0" class="st0" width="6.7" height="0.9"/>
		</g>
		<g id="Group_136" transform="translate(7.438 14.119)">
			<rect id="Rectangle_218" x="0" y="0" class="st0" width="6.7" height="0.9"/>
		</g>
		<g id="Group_137" transform="translate(0 3.45)">
			<path id="Path_595" class="st0" d="M15.5,18.5H2.1c-1.2,0-2.1-0.9-2.1-2.1v-2h4V0h13.7v16.4C17.6,17.6,16.7,18.5,15.5,18.5z
				 M13.7,16.4c0,0.7,0.6,1.2,1.2,1.2h0.6c0.7,0,1.2-0.6,1.2-1.2V0.9H4.8v13.6h8.8V16.4z M0.9,16.4c0,0.7,0.6,1.2,1.2,1.2h11.1
				c-0.3-0.4-0.4-0.8-0.4-1.2v-1.1H0.9L0.9,16.4z"/>
		</g>
		<g id="Group_138" transform="translate(6.755 0)">
			<path id="Path_596" class="st0" d="M13.7,16.4h-0.9V0.9H0.9v0.9H0V0h13.7L13.7,16.4z"/>
		</g>
	</g>
</g>
</svg>
