<svg xmlns="http://www.w3.org/2000/svg" width="26.899" height="18.468" viewBox="0 0 26.899 18.468">
  <g id="Group_162" data-name="Group 162" transform="translate(1059.086 -846.967)">
    <circle id="Ellipse_58" data-name="Ellipse 58" cx="0.569" cy="0.569" r="0.569" transform="translate(-1046.207 850.194) rotate(-89.781)" fill="#fff" stroke="#fff" stroke-miterlimit="10" stroke-width="0.5"/>
    <path id="Path_616" data-name="Path 616" d="M-1001.934,908.887a.569.569,0,0,0,.568.568.568.568,0,0,0,.568-.568.569.569,0,0,0-.568-.569A.569.569,0,0,0-1001.934,908.887Z" transform="translate(-44.271 -47.539)" fill="#fff" stroke="#fff" stroke-miterlimit="10" stroke-width="0.5"/>
    <path id="Path_617" data-name="Path 617" d="M-1045.452,908.887a.569.569,0,0,0,.568.568.568.568,0,0,0,.568-.568.569.569,0,0,0-.568-.569A.569.569,0,0,0-1045.452,908.887Z" transform="translate(-10.413 -47.539)" fill="#fff" stroke="#fff" stroke-miterlimit="10" stroke-width="0.5"/>
    <path id="Path_618" data-name="Path 618" d="M-959.027,908.887a.568.568,0,0,0,.568.568.568.568,0,0,0,.568-.568.569.569,0,0,0-.568-.569A.569.569,0,0,0-959.027,908.887Z" transform="translate(-77.654 -47.539)" fill="#fff" stroke="#fff" stroke-miterlimit="10" stroke-width="0.5"/>
    <path id="Path_619" data-name="Path 619" d="M-1032.788,858.938h-2.974v-2.509a.351.351,0,0,0-.351-.351h-9.174v-2.615h1.249a.351.351,0,0,0,.351-.351.35.35,0,0,0-.351-.351h-1.249v-.725h2.974a.351.351,0,0,0,.35-.351v-4.12a.351.351,0,0,0-.35-.351h-6.649a.351.351,0,0,0-.351.351v4.12a.351.351,0,0,0,.351.351h2.974v.725h-1.249a.351.351,0,0,0-.351.351.351.351,0,0,0,.351.351h1.249v2.615h-9.174a.351.351,0,0,0-.35.335c-.062,1.364-.07,2.107-.05,2.525h-2.924a.351.351,0,0,0-.351.35v4.12a.351.351,0,0,0,.351.351h2.974v.725h-1.249a.351.351,0,0,0-.351.351.351.351,0,0,0,.351.35h3.2a.351.351,0,0,0,.351-.35.351.351,0,0,0-.351-.351h-1.249v-.725h2.974a.351.351,0,0,0,.35-.351v-4.12a.351.351,0,0,0-.35-.35h-3.026c-.015-.419,0-1.3.038-2.158h8.838v2.158h-2.974a.351.351,0,0,0-.351.35v4.12a.351.351,0,0,0,.351.351h2.974v.725h-1.249a.351.351,0,0,0-.351.351.351.351,0,0,0,.351.35h3.2a.35.35,0,0,0,.351-.35.351.351,0,0,0-.351-.351h-1.249v-.725h2.974a.351.351,0,0,0,.35-.351v-4.12a.351.351,0,0,0-.35-.35h-2.974V856.78h8.823v2.158h-2.974a.351.351,0,0,0-.351.35v4.12a.351.351,0,0,0,.351.351h2.974v.725h-1.249a.351.351,0,0,0-.351.351.35.35,0,0,0,.351.35h3.2a.35.35,0,0,0,.351-.35.351.351,0,0,0-.351-.351h-1.249v-.725h2.974a.351.351,0,0,0,.35-.351v-4.12A.351.351,0,0,0-1032.788,858.938Zm-15.823-11.02h5.948v3.418h-5.948Zm-3.577,15.14h-5.948V859.64h5.948Zm9.524,0h-5.948V859.64h5.948Zm9.524,0h-5.948V859.64h5.948Z" transform="translate(0 0)" fill="#fff" stroke="#fff" stroke-miterlimit="10" stroke-width="0.5"/>
  </g>
</svg>
