<?xml version="1.0" encoding="utf-8"?>
<!-- Generator: Adobe Illustrator 25.2.3, SVG Export Plug-In . SVG Version: 6.00 Build 0)  -->
<svg version="1.1" id="Layer_1" xmlns="http://www.w3.org/2000/svg" xmlns:xlink="http://www.w3.org/1999/xlink" x="0px" y="0px"
	 viewBox="0 0 26.9 18.5" style="enable-background:new 0 0 26.9 18.5;" xml:space="preserve">
<style type="text/css">
	.st0{fill:#ED1A23;stroke:#ED1A23;stroke-width:0.5;stroke-miterlimit:10;}
</style>
<g id="Group_162" transform="translate(1059.086 -846.967)">
	<circle id="Ellipse_58" class="st0" cx="-1045.6" cy="849.6" r="0.6"/>
	<path id="Path_616" class="st0" d="M-1046.2,861.3c0,0.3,0.3,0.6,0.6,0.6c0.3,0,0.6-0.3,0.6-0.6c0-0.3-0.3-0.6-0.6-0.6
		C-1046,860.8-1046.2,861-1046.2,861.3z"/>
	<path id="Path_617" class="st0" d="M-1055.9,861.3c0,0.3,0.3,0.6,0.6,0.6c0.3,0,0.6-0.3,0.6-0.6c0-0.3-0.3-0.6-0.6-0.6
		C-1055.6,860.8-1055.9,861-1055.9,861.3z"/>
	<path id="Path_618" class="st0" d="M-1036.7,861.3c0,0.3,0.3,0.6,0.6,0.6s0.6-0.3,0.6-0.6c0-0.3-0.3-0.6-0.6-0.6
		C-1036.4,860.8-1036.7,861-1036.7,861.3z"/>
	<path id="Path_619" class="st0" d="M-1032.8,858.9h-3v-2.5c0-0.2-0.2-0.4-0.4-0.4h-9.2v-2.6h1.2c0.2,0,0.4-0.2,0.4-0.4
		c0-0.2-0.2-0.4-0.3-0.4c0,0,0,0,0,0h-1.2V852h3c0.2,0,0.3-0.2,0.3-0.4v-4.1c0-0.2-0.2-0.4-0.3-0.4h-6.6c-0.2,0-0.4,0.2-0.4,0.4v4.1
		c0,0.2,0.2,0.4,0.4,0.4h3v0.7h-1.2c-0.2,0-0.4,0.2-0.4,0.4s0.2,0.4,0.4,0.4h1.2v2.6h-9.2c-0.2,0-0.3,0.1-0.3,0.3
		c-0.1,1.4-0.1,2.1-0.1,2.5h-2.9c-0.2,0-0.4,0.2-0.4,0.3v4.1c0,0.2,0.2,0.4,0.4,0.4h3v0.7h-1.2c-0.2,0-0.4,0.2-0.4,0.4
		c0,0.2,0.2,0.3,0.4,0.3h3.2c0.2,0,0.4-0.2,0.4-0.3c0-0.2-0.2-0.4-0.4-0.4h-1.2v-0.7h3c0.2,0,0.3-0.2,0.3-0.4v-4.1
		c0-0.2-0.2-0.3-0.3-0.3h-3c0-0.4,0-1.3,0-2.2h8.8v2.2h-3c-0.2,0-0.4,0.2-0.4,0.3v4.1c0,0.2,0.2,0.4,0.4,0.4h3v0.7h-1.2
		c-0.2,0-0.4,0.2-0.4,0.4c0,0.2,0.2,0.3,0.4,0.3h3.2c0.2,0,0.4-0.2,0.4-0.3c0,0,0,0,0,0c0-0.2-0.2-0.4-0.4-0.4h-1.2v-0.7h3
		c0.2,0,0.3-0.2,0.3-0.4v-4.1c0-0.2-0.2-0.3-0.3-0.3h-3v-2.2h8.8v2.2h-3c-0.2,0-0.4,0.2-0.4,0.3v4.1c0,0.2,0.2,0.4,0.4,0.4h3v0.7
		h-1.2c-0.2,0-0.4,0.2-0.4,0.4c0,0.2,0.2,0.3,0.3,0.3c0,0,0,0,0,0h3.2c0.2,0,0.4-0.2,0.4-0.3c0,0,0,0,0,0c0-0.2-0.2-0.4-0.4-0.4
		h-1.2v-0.7h3c0.2,0,0.3-0.2,0.3-0.4v-4.1C-1032.4,859.1-1032.6,858.9-1032.8,858.9C-1032.8,858.9-1032.8,858.9-1032.8,858.9z
		 M-1048.6,847.9h5.9v3.4h-5.9V847.9z M-1052.2,863.1h-5.9v-3.4h5.9V863.1z M-1042.7,863.1h-5.9v-3.4h5.9V863.1z M-1033.1,863.1
		h-5.9v-3.4h5.9V863.1z"/>
</g>
</svg>
