<?xml version="1.0" encoding="utf-8"?>
<!-- Generator: Adobe Illustrator 25.2.3, SVG Export Plug-In . SVG Version: 6.00 Build 0)  -->
<svg version="1.1" id="Layer_1" xmlns="http://www.w3.org/2000/svg" xmlns:xlink="http://www.w3.org/1999/xlink" x="0px" y="0px"
	 viewBox="0 0 25.6 20.6" style="enable-background:new 0 0 25.6 20.6;" xml:space="preserve">
<style type="text/css">
	.st0{fill:#ED1A23;stroke:#ED1A23;stroke-width:0.5;}
</style>
<g id="Group_161" transform="translate(822.318 -494.599)">
	<path id="Path_610" class="st0" d="M-818.2,497.2c0,0.4-0.3,0.7-0.7,0.7s-0.7-0.3-0.7-0.7s0.3-0.7,0.7-0.7
		S-818.2,496.9-818.2,497.2z"/>
	<path id="Path_611" class="st0" d="M-815.5,497.2c0,0.4-0.3,0.7-0.7,0.7s-0.7-0.3-0.7-0.7s0.3-0.7,0.7-0.7
		S-815.5,496.9-815.5,497.2z"/>
	<path id="Path_612" class="st0" d="M-812.8,497.2c0,0.4-0.3,0.7-0.7,0.7s-0.7-0.3-0.7-0.7s0.3-0.7,0.7-0.7
		C-813.1,496.6-812.8,496.9-812.8,497.2z"/>
	<rect id="Rectangle_220" x="-821.2" y="498.7" class="st0" width="20" height="0.8"/>
	<path id="Path_613" class="st0" d="M-810.3,511.8c0-0.1,0-0.3,0.1-0.4h-10.3c-0.4,0-0.7-0.3-0.7-0.6v-14.4c0-0.2,0.1-0.3,0.2-0.4
		c0.1-0.1,0.3-0.2,0.4-0.2h18.7c0.3,0,0.6,0.3,0.6,0.6v5.1c0.1,0.1,0.1,0.3,0.2,0.4c0.2-0.1,0.4-0.2,0.7-0.2v-5.3
		c0-0.8-0.7-1.4-1.5-1.5h-18.7c-0.4,0-0.8,0.2-1,0.4c-0.3,0.3-0.4,0.6-0.4,1v14.4c0,0.8,0.7,1.5,1.5,1.4h10.3
		C-810.3,512-810.3,511.9-810.3,511.8z"/>
	<path id="Path_614" class="st0" d="M-802.9,515h-1.6c-0.5,0-0.9-0.4-0.9-0.9l0,0v-0.3c0-0.2-0.2-0.4-0.4-0.5s-0.4-0.1-0.6,0.1
		l-0.2,0.2c-0.2,0.2-0.4,0.3-0.6,0.3c-0.2,0-0.5-0.1-0.6-0.3l-1.2-1.2c-0.3-0.4-0.3-0.9,0-1.3l0.2-0.2c0.1-0.2,0.2-0.4,0.1-0.6
		c-0.1-0.2-0.3-0.4-0.5-0.4h-0.3c-0.5,0-0.9-0.4-0.9-0.9l0,0v-1.6c0-0.2,0.1-0.5,0.3-0.6c0.2-0.2,0.4-0.3,0.6-0.3h0.3
		c0.2,0,0.4-0.2,0.5-0.4c0.1-0.2,0.1-0.4-0.1-0.6l-0.2-0.2c-0.3-0.4-0.3-0.9,0-1.3l1.2-1.2c0.2-0.2,0.4-0.3,0.6-0.3
		c0.2,0,0.5,0.1,0.6,0.3l0.2,0.2c0.2,0.1,0.4,0.2,0.6,0.1c0.2-0.1,0.4-0.3,0.4-0.5v-0.3c0-0.5,0.4-0.9,0.9-0.9l0,0h1.6
		c0.5,0,0.9,0.4,0.9,0.9l0,0v0.3c0,0.2,0.2,0.4,0.4,0.5s0.4,0.1,0.6-0.1l0.2-0.2c0.2-0.2,0.4-0.3,0.6-0.3c0.2,0,0.5,0.1,0.6,0.3
		l1.2,1.2c0.2,0.2,0.3,0.4,0.3,0.6s-0.1,0.5-0.3,0.6l-0.2,0.2c-0.1,0.2-0.2,0.4-0.1,0.6c0.1,0.2,0.3,0.4,0.5,0.4h0.3
		c0.5,0,0.9,0.4,0.9,0.9l0,0v1.6c0,0.2-0.1,0.5-0.3,0.6c-0.2,0.2-0.4,0.3-0.6,0.3h-0.3c-0.2,0-0.4,0.2-0.5,0.4
		c-0.1,0.2-0.1,0.4,0.1,0.6l0.2,0.2c0.2,0.2,0.3,0.4,0.3,0.6s-0.1,0.5-0.3,0.6l-1.2,1.2c-0.2,0.2-0.4,0.3-0.6,0.3
		c-0.2,0-0.5-0.1-0.6-0.3l-0.2-0.2c-0.2-0.1-0.4-0.2-0.6-0.1c-0.2,0.1-0.4,0.3-0.4,0.5v0.3C-802,514.6-802.4,515-802.9,515z
		 M-806.1,512.4c0.2,0,0.4,0,0.6,0.1c0.5,0.2,0.9,0.7,0.9,1.3v0.3c0,0,0,0.1,0.1,0.1h1.6c0,0,0.1,0,0.1-0.1v-0.3
		c0-0.6,0.4-1.1,0.9-1.3c0.2-0.1,0.4-0.1,0.6-0.1c0.4,0,0.7,0.1,0.9,0.4l0.2,0.2h0.1l0,0l1.2-1.2l0,0l0,0l-0.2-0.2
		c-0.4-0.4-0.5-1-0.3-1.5s0.7-0.9,1.3-0.9h0.3l0,0l0,0v-1.6c0,0,0-0.1-0.1-0.1h-0.3c-0.6,0-1.1-0.4-1.3-0.9s-0.1-1.1,0.3-1.5
		l0.2-0.2l0,0l0,0l-1.2-1.2h-0.1l0,0l-0.2,0.2c-0.2,0.2-0.6,0.4-0.9,0.4c-0.2,0-0.4,0-0.6-0.1c-0.5-0.2-0.9-0.7-0.9-1.3v-0.3
		c0,0,0-0.1-0.1-0.1h-1.6c0,0-0.1,0-0.1,0.1v0.3c0,0.6-0.4,1.1-0.9,1.3c-0.2,0.1-0.4,0.1-0.6,0.1c-0.4,0-0.7-0.1-0.9-0.4l-0.2-0.2
		h-0.1l0,0l-1.2,1.2v0.1l0.2,0.2c0.4,0.4,0.5,1,0.3,1.5s-0.7,0.9-1.3,0.9h-0.3l0,0l0,0v1.6c0,0,0,0.1,0.1,0.1h0.3
		c0.6,0,1.1,0.4,1.3,0.9s0.1,1.1-0.3,1.5l-0.2,0.2v0.1l0,0l1.2,1.2h0.1l0,0l0.2-0.2C-806.7,512.5-806.4,512.4-806.1,512.4
		L-806.1,512.4z"/>
	<g id="Group_161-2" transform="translate(-806.96 504.835)">
		<path id="Path_615" class="st0" d="M3.4,6.8C1.5,6.8,0,5.3,0,3.4S1.5,0,3.4,0s3.4,1.5,3.4,3.4S5.3,6.8,3.4,6.8z M3.4,0.8
			C2,0.8,0.8,2,0.8,3.4S1.9,6,3.4,6C4.8,6,6,4.9,6,3.4C5.9,2,4.8,0.8,3.4,0.8z"/>
	</g>
</g>
</svg>
