<svg xmlns="http://www.w3.org/2000/svg" width="18.346" height="21.5" viewBox="0 0 18.346 21.5">
  <g id="Group_160" data-name="Group 160" transform="translate(-221.75 -496.75)">
    <g id="Group_159" data-name="Group 159" transform="translate(222 497)">
      <path id="Path_597" data-name="Path 597" d="M-805.594,99.388c-4.434,0-8.923-.965-8.923-2.81s4.489-2.81,8.923-2.81,8.923.965,8.923,2.81S-801.16,99.388-805.594,99.388Zm0-4.709c-5.26,0-8.011,1.236-8.011,1.9s2.751,1.9,8.011,1.9,8.012-1.236,8.012-1.9S-800.334,94.679-805.594,94.679Z" transform="translate(814.517 -93.767)" fill="#fff" stroke="#fff" stroke-width="0.5"/>
      <path id="Path_598" data-name="Path 598" d="M-805.594,121.564c-4.434,0-8.923-.965-8.923-2.81v-2.517a.456.456,0,0,1,.456-.456.456.456,0,0,1,.456.456v2.517c0,.663,2.751,1.9,8.011,1.9s8.012-1.236,8.012-1.9v-2.517a.456.456,0,0,1,.456-.456.456.456,0,0,1,.456.456v2.517C-796.671,120.6-801.16,121.564-805.594,121.564Z" transform="translate(814.517 -110.764)" fill="#fff" stroke="#fff" stroke-width="0.5"/>
      <path id="Path_599" data-name="Path 599" d="M-805.594,143.944c-4.434,0-8.923-.965-8.923-2.81v-2.518a.456.456,0,0,1,.456-.456.456.456,0,0,1,.456.456v2.518c0,.663,2.751,1.9,8.011,1.9s8.012-1.236,8.012-1.9v-2.518a.456.456,0,0,1,.456-.456.456.456,0,0,1,.456.456v2.518C-796.671,142.979-801.16,143.944-805.594,143.944Z" transform="translate(814.517 -128.044)" fill="#fff" stroke="#fff" stroke-width="0.5"/>
      <path id="Path_600" data-name="Path 600" d="M-805.594,166.325c-4.434,0-8.923-.965-8.923-2.81V161a.456.456,0,0,1,.456-.456.456.456,0,0,1,.456.456v2.517c0,.663,2.751,1.9,8.011,1.9s8.012-1.236,8.012-1.9V161a.456.456,0,0,1,.456-.456.456.456,0,0,1,.456.456v2.517C-796.671,165.359-801.16,166.325-805.594,166.325Z" transform="translate(814.517 -145.325)" fill="#fff" stroke="#fff" stroke-width="0.5"/>
      <path id="Path_601" data-name="Path 601" d="M-776.937,125.734a.66.66,0,0,1-.66.66.66.66,0,0,1-.66-.66.66.66,0,0,1,.66-.66A.66.66,0,0,1-776.937,125.734Z" transform="translate(786.52 -117.94)" fill="#fff" stroke="#fff" stroke-width="0.5"/>
      <path id="Path_602" data-name="Path 602" d="M-788.937,124.734a.66.66,0,0,1-.66.66.66.66,0,0,1-.66-.66.66.66,0,0,1,.66-.66A.66.66,0,0,1-788.937,124.734Z" transform="translate(795.785 -117.168)" fill="#fff" stroke="#fff" stroke-width="0.5"/>
      <path id="Path_603" data-name="Path 603" d="M-766.257,124.734a.66.66,0,0,0,.66.66.66.66,0,0,0,.66-.66.66.66,0,0,0-.66-.66A.66.66,0,0,0-766.257,124.734Z" transform="translate(777.255 -117.168)" fill="#fff" stroke="#fff" stroke-width="0.5"/>
      <path id="Path_604" data-name="Path 604" d="M-776.937,148.614a.66.66,0,0,1-.66.66.66.66,0,0,1-.66-.66.66.66,0,0,1,.66-.66A.66.66,0,0,1-776.937,148.614Z" transform="translate(786.52 -135.606)" fill="#fff" stroke="#fff" stroke-width="0.5"/>
      <path id="Path_605" data-name="Path 605" d="M-788.937,147.614a.66.66,0,0,1-.66.66.66.66,0,0,1-.66-.66.66.66,0,0,1,.66-.66A.66.66,0,0,1-788.937,147.614Z" transform="translate(795.785 -134.834)" fill="#fff" stroke="#fff" stroke-width="0.5"/>
      <path id="Path_606" data-name="Path 606" d="M-766.257,147.614a.66.66,0,0,0,.66.66.66.66,0,0,0,.66-.66.66.66,0,0,0-.66-.66A.66.66,0,0,0-766.257,147.614Z" transform="translate(777.255 -134.834)" fill="#fff" stroke="#fff" stroke-width="0.5"/>
      <path id="Path_607" data-name="Path 607" d="M-776.937,170.994a.66.66,0,0,1-.66.66.66.66,0,0,1-.66-.66.66.66,0,0,1,.66-.66A.66.66,0,0,1-776.937,170.994Z" transform="translate(786.52 -152.886)" fill="#fff" stroke="#fff" stroke-width="0.5"/>
      <path id="Path_608" data-name="Path 608" d="M-788.937,169.994a.66.66,0,0,1-.66.66.66.66,0,0,1-.66-.66.66.66,0,0,1,.66-.66A.66.66,0,0,1-788.937,169.994Z" transform="translate(795.785 -152.114)" fill="#fff" stroke="#fff" stroke-width="0.5"/>
      <path id="Path_609" data-name="Path 609" d="M-766.257,169.994a.66.66,0,0,0,.66.66.66.66,0,0,0,.66-.66.66.66,0,0,0-.66-.66A.66.66,0,0,0-766.257,169.994Z" transform="translate(777.255 -152.114)" fill="#fff" stroke="#fff" stroke-width="0.5"/>
    </g>
  </g>
</svg>
