<svg xmlns="http://www.w3.org/2000/svg" width="392.471" height="139" viewBox="0 0 392.471 139">
  <g id="그룹_6" data-name="그룹 6" transform="translate(-1122.154 -197.907)">
    <g id="그룹_2" data-name="그룹 2" transform="translate(1122.154 197.907)">
      <path id="패스_2" data-name="패스 2" d="M1186.258,246.457a8.9,8.9,0,0,0-2.191-3.148.5.5,0,0,0-.444-.052,26,26,0,0,0-4.086,2.828,10.682,10.682,0,0,0-1.058,1.2,2.639,2.639,0,0,0-.6,2.1,8.779,8.779,0,0,1,.011,1.3,7.7,7.7,0,0,1-2.966,3.049.92.92,0,0,1-1.065-.012c-.319-.2-.619-.424-.924-.641a2.884,2.884,0,0,1-1.107-1.72c-.1-.415-.163-.841-.231-1.265-.111-.688-.22-1.375-.314-2.065a11.922,11.922,0,0,1-.13-1.277c-.037-1.124.043-2.252-.1-3.374a1.728,1.728,0,0,1,.027-.479c.193-1.214.463-2.422.566-3.644.082-.966.412-1.878.474-2.842a3.466,3.466,0,0,1,.231-.761,10.662,10.662,0,0,0,.683-2.781.58.58,0,0,1,.076-.3,6.29,6.29,0,0,0,.963-2.7,2.1,2.1,0,0,1,.471-1.006,3.473,3.473,0,0,0,.6-.751,7.489,7.489,0,0,1,1.793-2.021,1.38,1.38,0,0,1,1.006-.437,7.656,7.656,0,0,1,2.377.319,2.487,2.487,0,0,1,1.386,1.258,1.118,1.118,0,0,1,.115.62,5.552,5.552,0,0,1-.2,1.1c-.3,1.027-.645,2.041-.942,3.069-.19.664-.33,1.343-.485,2.017-.227.991-.43,1.988-.677,2.974-.155.621-.388,1.223-.557,1.841a2.879,2.879,0,0,0-.077.791.59.59,0,0,0,.688.5c1-.378,1.991-.768,2.985-1.153a.907.907,0,0,0,.581-.875c.067-.855.179-1.706.225-2.562.086-1.609.45-3.179.625-4.776a3.452,3.452,0,0,1,.094-.473q.734-2.795,1.476-5.588c.083-.308.2-.607.309-.908a39.065,39.065,0,0,0,1.667-5.7,1.911,1.911,0,0,1,.13-.462c.413-.87.8-1.751,1.265-2.6a2.325,2.325,0,0,1,1.935-1.267,9.007,9.007,0,0,1,3.185.3,2.723,2.723,0,0,1,.737.309,4.748,4.748,0,0,0,1.616.681,1.413,1.413,0,0,1,1,.964,2.723,2.723,0,0,1,.055,2.044,17.605,17.605,0,0,0-.827,3.1c-.464,2.089-.847,4.2-1.322,6.284a11.6,11.6,0,0,1-.561,2.333,1.757,1.757,0,0,0-.106.469c-.219,1.591-.424,3.186-.655,4.776-.163,1.111-.386,2.213-.537,3.324a16.348,16.348,0,0,0-.158,2.242,4.551,4.551,0,0,0,.27,1.25,4.682,4.682,0,0,1-.141,2.375,1.439,1.439,0,0,1-.231.42c-.169.273-.353.537-.515.813a7.066,7.066,0,0,1-2.52,2.619,2.153,2.153,0,0,0-.781.547c-.077.115-.093.382.029.419a8.055,8.055,0,0,1,2.794,2.1,2.965,2.965,0,0,1,.8,1.884,4.936,4.936,0,0,1,.033.963,10.719,10.719,0,0,1-1.291,5.083,7.183,7.183,0,0,1-1.776,2.055c-.382.3-.776.574-1.173.847-.75.517-1.513,1.015-2.256,1.542a7.01,7.01,0,0,1-2.171,1.02,6.474,6.474,0,0,0-1.385.389,1.926,1.926,0,0,1-.786.1,1.358,1.358,0,0,1-.9-.271q-.576-.436-1.173-.843a3.14,3.14,0,0,1-1.386-2.422,3.434,3.434,0,0,1,.025-.8c.051-.372.13-.739.214-1.1a8.57,8.57,0,0,1,.435-1.7c.429-.918.963-1.789,1.471-2.67.428-.742.868-1.477,1.328-2.2.978-1.533,1.986-3.048,2.955-4.586.4-.631.726-1.307,1.1-1.986Zm2.541,8.067c-.019-.167-.039-.379-.072-.588a1.973,1.973,0,0,0-1.353-1.632.546.546,0,0,0-.588.1,4.748,4.748,0,0,0-.59.74,46.888,46.888,0,0,0-2.527,5.158,15,15,0,0,0-.5,1.515,2.036,2.036,0,0,0-.04.474c-.009.172.163.486.321.511a.694.694,0,0,0,.448-.027,15.324,15.324,0,0,0,4.363-4.381,3.766,3.766,0,0,0,.532-1.866Z" transform="translate(-1137.893 -203.011)" fill="#fff"/>
      <path id="패스_3" data-name="패스 3" d="M1235.45,270.186c.11.005.324.02.538.025a4.4,4.4,0,0,1,2.99,1.383.97.97,0,0,1,.24,1.043c-.182.559-.38,1.114-.576,1.669a4.437,4.437,0,0,0-.336,1.236,1.591,1.591,0,0,1-.215.589,36.158,36.158,0,0,0-1.744,4.144c-.185.5-.405.99-.609,1.484-.164.4-.339.789-.49,1.19a44.958,44.958,0,0,1-2.081,4.864,16.178,16.178,0,0,0-.72,1.787c-.45,1.2-1.075,2.329-1.549,3.524-.318.8-.488,1.632-.848,2.42a31.535,31.535,0,0,0-1.62,4.192,36.359,36.359,0,0,0-1.546,5.064,2.22,2.22,0,0,1-.111.467c-1.067,2.749-1.777,5.612-2.7,8.408-.485,1.473-.917,2.962-1.4,4.436a11.827,11.827,0,0,1-.453,1.195,21.627,21.627,0,0,0-1.59,4.536,7.024,7.024,0,0,1-.554,1.667c-.276.58-.523,1.174-.811,1.748a6.721,6.721,0,0,1-.59.957,2.346,2.346,0,0,1-1.414.991,4.84,4.84,0,0,0-.877.374c-.5.723-1.039.437-1.673.142a2.688,2.688,0,0,1-1.67-1.991c-.213-.993-.538-1.961-.816-2.939a3.452,3.452,0,0,1-.035-1.593,8.967,8.967,0,0,0,.242-2.227,3.088,3.088,0,0,1,.3-1.236,6.023,6.023,0,0,1,.6-1.133,18.6,18.6,0,0,0,1.583-3.332c.344-.841.646-1.7.966-2.552a2.122,2.122,0,0,1,.118-.3,42.911,42.911,0,0,0,2.962-6.933c.742-2.123,1.457-4.256,2.184-6.384.762-2.229,1.509-4.462,2.3-6.681.392-1.109.811-2.213,1.3-3.282.426-.926.676-1.911,1.108-2.837.611-1.309,1.082-2.68,1.632-4.019.3-.743.664-1.465.968-2.208.284-.693.554-1.394.772-2.11a5.754,5.754,0,0,1,.4-1.039,4.248,4.248,0,0,0,.283-.909.347.347,0,0,0-.386-.38,2.008,2.008,0,0,0-.591.227,11.1,11.1,0,0,1-1.832,1c-.481.229-.915.57-1.41.755-.567.212-.892.787-1.5.908a4.655,4.655,0,0,0-1.528.867c-.494.319-.942.707-1.419,1.055a16.493,16.493,0,0,0-2.574,2.4,2.3,2.3,0,0,1-1.7.763,2.737,2.737,0,0,1-1.54-.388,1.584,1.584,0,0,1-.763-1.5,4.022,4.022,0,0,1,.339-1.394,2.776,2.776,0,0,1,1.033-1.38,12.234,12.234,0,0,0,2.281-1.774,2.3,2.3,0,0,1,.526-.365c2.217-1.309,4.5-2.494,6.794-3.658a14.163,14.163,0,0,1,1.343-.533,7.972,7.972,0,0,0,1.046-.405,5.238,5.238,0,0,1,1.5-.542,3.629,3.629,0,0,0,.912-.3,4.68,4.68,0,0,1,1.666-.557,1.94,1.94,0,0,0,.749-.27,3.273,3.273,0,0,1,2.324-.382c.053.009.106.012.264.027Z" transform="translate(-1151.117 -221.147)" fill="#fff"/>
      <path id="패스_4" data-name="패스 4" d="M1225.122,236.4c.324-.737.71-1.5,1-2.3a2.834,2.834,0,0,0,.109-2.188.513.513,0,0,1,.22-.688,13.657,13.657,0,0,1,3.368-1.465,1.546,1.546,0,0,1,1.095.1,3.2,3.2,0,0,1,1.621,1.709,1.886,1.886,0,0,1,.062,1.262,15.474,15.474,0,0,1-1.151,2.63,1.528,1.528,0,0,0-.281.569,5.354,5.354,0,0,1-.59,1.477,3.674,3.674,0,0,1-.687,1.252,2.533,2.533,0,0,0-.351.718,15.834,15.834,0,0,1-.946,1.859,3.184,3.184,0,0,0-.586,1.48,2.853,2.853,0,0,1-.938,1.806,5.086,5.086,0,0,1-.486.422,4.38,4.38,0,0,0-.727.63,3.7,3.7,0,0,1-2.433,1.425,3.136,3.136,0,0,0-.747.291,3.2,3.2,0,0,0-.424.294c-.156.932-.329,1.881-.468,2.834a2.022,2.022,0,0,0,.063.791c.032.121.208.223.34.295a.484.484,0,0,0,.312.02,17.964,17.964,0,0,0,3.993-1.2,5.093,5.093,0,0,1,1.063-.34c1.3-.32,2.593-.655,3.876-1.03,1.134-.332,2.33-.378,3.446-.78a5.737,5.737,0,0,1,2.226.124c.4.156.83.211,1.241.336a1.127,1.127,0,0,1,.809.913,3.729,3.729,0,0,1,.064.8,1.47,1.47,0,0,1-1.02,1.48c-.451.167-.9.35-1.345.524a2.3,2.3,0,0,1-.451.161c-1.431.222-2.79.741-4.216.988a20.247,20.247,0,0,0-5.036,1.588,5.31,5.31,0,0,1-.613.178,4.135,4.135,0,0,0-.9.317c-1.054.642-2.211,1.075-3.295,1.654-1.274.683-2.545,1.374-3.789,2.109a10.282,10.282,0,0,0-1.528,1.168c-1.087.959-2.3,1.756-3.42,2.67a2.251,2.251,0,0,1-1.662.45,3.717,3.717,0,0,1-1.685-.468,2.436,2.436,0,0,1-1-1.217,2.121,2.121,0,0,1-.092-.47.521.521,0,0,1,0-.161c.26-1.961.376-2.542,2.17-3.675.95-.6,1.9-1.208,2.863-1.781a1.957,1.957,0,0,0,1.022-1.545c.068-.691.067-1.39.071-2.085a.526.526,0,0,0-.616-.564c-.373.036-.745.105-1.118.108a5.757,5.757,0,0,1-1.116-.1,1.79,1.79,0,0,1-1.325-1.071,15.562,15.562,0,0,1-.648-1.81,33.146,33.146,0,0,1-.892-4.4,3.414,3.414,0,0,1-.023-.641,37.722,37.722,0,0,1,.489-5.731,6.573,6.573,0,0,1,.321-1.888,8.956,8.956,0,0,1,.286-1.89,1.576,1.576,0,0,0,.086-.634,14.867,14.867,0,0,1,.514-3.327,5.652,5.652,0,0,0,.132-.79,2.816,2.816,0,0,1,.308-1.069c.6-1.2.689-1.317,1.915-1.787a3.661,3.661,0,0,1,2.356-.233,4.888,4.888,0,0,0,.637.074,1.3,1.3,0,0,1,.466.094,5.825,5.825,0,0,1,2.386,1.842,18.248,18.248,0,0,1,.848,1.72,1.67,1.67,0,0,1,.05.473,9.691,9.691,0,0,1-.311,3.168,3.647,3.647,0,0,1-.545,1.149,2.5,2.5,0,0,0-.324,1.063.677.677,0,0,0,.527.7,2.113,2.113,0,0,0,.472.082c1.233-.022,2.467-.041,3.7-.088a2.175,2.175,0,0,0,1.266-.382Zm-1.59,4.556a1.908,1.908,0,0,0-1.12.2c-.714.215-1.42.454-2.129.681a1.628,1.628,0,0,1-.939,0,2.76,2.76,0,0,0-2.962,1.077,1.451,1.451,0,0,0-.3.723c-.081.633-.112,1.272-.149,1.91a.512.512,0,0,0,.632.521,14.077,14.077,0,0,0,1.341-.511q1.953-.911,3.886-1.866a10.612,10.612,0,0,0,1.236-.73,1.157,1.157,0,0,0,.4-.475,2.172,2.172,0,0,0,.1-1.527Z" transform="translate(-1150.163 -207.078)" fill="#fff"/>
      <path id="패스_5" data-name="패스 5" d="M1137.612,252.47a5.358,5.358,0,0,1-2.51-.625,2.4,2.4,0,0,1-1.273-1.57c-.03-.1-.05-.209-.07-.314a1.982,1.982,0,0,1,1.007-2.307,32.621,32.621,0,0,1,5.906-3.251,45.689,45.689,0,0,1,5.123-1.873,9.874,9.874,0,0,0,1.216-.414,17.934,17.934,0,0,1,4.16-1.167,7.121,7.121,0,0,1,2.057-.294c.609.058,1.1-.4,1.709-.379a14.427,14.427,0,0,0,1.6-.094.952.952,0,0,0,.3-.1.746.746,0,0,1,.621.033c.444.19.894.37,1.315.6,1.438.79,1.682,1.45,1.076,3.042a2.976,2.976,0,0,1-1.573,1.741,3.473,3.473,0,0,0-1.459,1.225c-.238.344-.638.578-.863.926a4.819,4.819,0,0,1-.7.866,1.21,1.21,0,0,0-.3.727.819.819,0,0,0,.332.846c.173.124.356.237.538.348a4.044,4.044,0,0,1,1.99,3.619,7.849,7.849,0,0,1-.955,3.373,1.567,1.567,0,0,1-.391.505c-.919.817-1.69,1.782-2.614,2.592a19.328,19.328,0,0,1-2.772,2.154,3.974,3.974,0,0,1-1.19.464,3.181,3.181,0,0,1-3.255-1.275,2.157,2.157,0,0,1-.3-.568,3.5,3.5,0,0,0-.294-.74,2.654,2.654,0,0,1-.34-2.431,23.928,23.928,0,0,1,1.189-3.482c.234-.538.344-1.129.572-1.671a5.219,5.219,0,0,1,.819-1.723,14.506,14.506,0,0,0,1.082-2.666,2.9,2.9,0,0,1,.67-1.426,3.28,3.28,0,0,0,.33-.548.6.6,0,0,0-.146-.587.592.592,0,0,0-.586-.145,4.664,4.664,0,0,0-.573.3,4.221,4.221,0,0,1-1.332.54,3.237,3.237,0,0,0-1.733.768.9.9,0,0,1-.438.172,9.37,9.37,0,0,0-3.13,1.578c-.263.182-.534.354-.812.509a2.716,2.716,0,0,0-.984.813,1.326,1.326,0,0,1-1.011.7,1.3,1.3,0,0,0-.549.312,8.209,8.209,0,0,1-1.464.9Zm15.749,1c-.234,0-.341,0-.448,0a1.141,1.141,0,0,0-1.038.637,13.452,13.452,0,0,0-.766,1.751,2.961,2.961,0,0,0-.057,1.733.6.6,0,0,0,.625.373,1.593,1.593,0,0,0,.433-.184,7.21,7.21,0,0,0,1.97-2.28,1.684,1.684,0,0,0,.062-1.54.726.726,0,0,0-.591-.475,1.247,1.247,0,0,0-.189-.014Z" transform="translate(-1125.87 -211.467)" fill="#fff"/>
      <path id="패스_6" data-name="패스 6" d="M1136.54,228.462c.392.076.721.258,1.114.062.767-.38,1.674-.351,2.43-.794a.778.778,0,0,1,.468-.033,2.855,2.855,0,0,0,1.858-.334,1.656,1.656,0,0,1,1.093-.121,3.154,3.154,0,0,0,1.587-.028,13.407,13.407,0,0,1,4.77.418,14.371,14.371,0,0,1,1.7.46,3.15,3.15,0,0,1,1.385,1.288.859.859,0,0,1,.116.295,3.66,3.66,0,0,1-.208,2.049.493.493,0,0,1-.194.247,13.86,13.86,0,0,0-2.01,1.589,1.794,1.794,0,0,1-.867.376c-1.848.31-3.694.633-5.544.931a12.016,12.016,0,0,1-2.7.364,1.4,1.4,0,0,0-.737.269,3.588,3.588,0,0,1-1.821.551,2.284,2.284,0,0,0-1.8.894,2.268,2.268,0,0,1-.756.577c-1.227.654-2.457,1.307-3.669,1.991-.6.34-1.173.744-1.756,1.124-.807.524-1.608,1.06-2.422,1.575a2.6,2.6,0,0,1-2.745.063,15.33,15.33,0,0,0-2.309-1.107.8.8,0,0,1-.42-.452c-.22-.6-.413-1.207-.674-1.8a3.155,3.155,0,0,1-.094-2.353,4.575,4.575,0,0,0,.245-.929,2.443,2.443,0,0,1,1.061-1.889.6.6,0,0,0,.263-.384c.026-.469.246-.677.705-.667a.611.611,0,0,0,.316-.043,7.111,7.111,0,0,1,2.438-.726,3.061,3.061,0,0,0,.6-.214,6.362,6.362,0,0,1,1.364-.46,4.493,4.493,0,0,0,1.052-.38,6.931,6.931,0,0,1,1.5-.536,1.688,1.688,0,0,0,.588-.233,1.691,1.691,0,0,1,1.044-.344,1.285,1.285,0,0,0,.751-.235,2.079,2.079,0,0,1,.731-.313,3.2,3.2,0,0,0,1.539-.753Z" transform="translate(-1122.154 -207.33)" fill="#fff"/>
      <path id="패스_7" data-name="패스 7" d="M1269.744,240.2c.739-.033,1.753-.1,2.77-.119a5.492,5.492,0,0,1,1.111.119c.42.08.829.214,1.247.307a.4.4,0,0,0,.4-.206.934.934,0,0,0,.162-.275,31.575,31.575,0,0,1,2.984-6.891c.048-.1.1-.188.156-.281a3.1,3.1,0,0,0,.527-1.981.445.445,0,0,1,.369-.456,2.822,2.822,0,0,1,.787-.094c.316.03.621.164.936.223a2.073,2.073,0,0,1,.974.524,8.675,8.675,0,0,0,1.338,1.145,2.352,2.352,0,0,1,.646.7c.19.258.335.549.5.823a4.365,4.365,0,0,1,.253,4.3,15.574,15.574,0,0,0-1.193,3.982c-.025.159-.033.32-.045.479a.512.512,0,0,0,.405.433c.321.013.641.023.962.024,1.018,0,2.035-.017,3.054,0a7.774,7.774,0,0,1,3.1.728,8.316,8.316,0,0,1,1.24.734,1.331,1.331,0,0,1,.419,1.451,6.812,6.812,0,0,1-.408.872,1.53,1.53,0,0,1-.994.752c-.776.2-1.544.438-2.314.664a16.841,16.841,0,0,0-3.525,1.549,12.183,12.183,0,0,1-2.885,1.385c-.152.039-.281.158-.432.21a1.983,1.983,0,0,0-1.277,1.336,13.773,13.773,0,0,1-.672,1.458,1.134,1.134,0,0,1-.718.6,3.934,3.934,0,0,1-1.588.165,1.427,1.427,0,0,1-.6-.191,18.494,18.494,0,0,1-1.59-1.086,3.816,3.816,0,0,1-1.445-3.548,17.718,17.718,0,0,0-.074-4.329c-.016-.105-.04-.21-.06-.314a.608.608,0,0,0-.434-.424,1.933,1.933,0,0,0-1.256.125c-.473.247-.93.527-1.379.816a.662.662,0,0,0-.106.873c.206.245.447.458.652.7a5.508,5.508,0,0,1,.916,1.311,3.692,3.692,0,0,1,.1,2.67,3.187,3.187,0,0,1-1.107,1.712c-.9.67-1.7,1.473-2.534,2.226a4.749,4.749,0,0,1-2.105,1.122c-.781.186-1.56.39-2.349.54a1.831,1.831,0,0,1-2.231-1.543,4.007,4.007,0,0,1-.045-1.6,12.008,12.008,0,0,1,1-3.2q.807-1.654,1.6-3.31a2.93,2.93,0,0,1,.66-.9,2.787,2.787,0,0,0,.824-1.168c.055-.172-.13-.49-.3-.472a4.09,4.09,0,0,0-.789.114c-1.372.456-2.771.831-4.1,1.42a14.108,14.108,0,0,0-2.271,1.178,8.758,8.758,0,0,1-1.125.614,3.616,3.616,0,0,1-2.356.238,1.671,1.671,0,0,1-1.216-.95,2.522,2.522,0,0,1-.319-1.232,3.466,3.466,0,0,0,.011-.482,1.624,1.624,0,0,1,1.015-1.813c.723-.34,1.382-.793,2.132-1.1a21.961,21.961,0,0,1,2.23-.9,10.431,10.431,0,0,0,1.213-.421,15.87,15.87,0,0,1,3.739-.869c1.7-.275,3.41-.331,5.394-.477Zm-3.9,12.7c.028.163.042.214.047.267a.379.379,0,0,0,.447.317,2.693,2.693,0,0,0,.59-.232,11.9,11.9,0,0,0,2.227-1.8,6.88,6.88,0,0,0,.784-1,1.927,1.927,0,0,0,.145-1.691.887.887,0,0,0-1.294-.474,8.021,8.021,0,0,0-2.764,3.632,4.056,4.056,0,0,0-.182.987Z" transform="translate(-1164.602 -208.341)" fill="#fff"/>
      <path id="패스_8" data-name="패스 8" d="M1257.276,274.7c0-.111-.019-.433.006-.751a1.687,1.687,0,0,1,.151-.617,22.582,22.582,0,0,0,1.206-3.31,1.933,1.933,0,0,1,.7-1.042.7.7,0,0,1,.431-.168,3.738,3.738,0,0,1,2.185.909,2.1,2.1,0,0,1,.367.511c.375.755.367.753,1.149.433a45.612,45.612,0,0,1,5.934-1.965c1.974-.5,3.991-.778,5.965-1.262,1.384-.081,2.75-.369,4.14-.376,1.984-.01,3.954-.233,5.929-.363,1.389-.092,2.773-.235,4.158-.368a1.731,1.731,0,0,1,1.091.143,2.5,2.5,0,0,0,1.392.309,1.915,1.915,0,0,1,.636.037,1.347,1.347,0,0,1,1.153,1.341,2.811,2.811,0,0,1-1.941,2.821,1.868,1.868,0,0,1-1.4.139,22.111,22.111,0,0,0-3.365-.005,1.148,1.148,0,0,1-.319.017,31,31,0,0,0-4.317.154c-1.175.029-2.351.06-3.525.121-1.709.087-3.42.148-5.12.321a15.321,15.321,0,0,0-2.69.4c-.766.22-1.566.313-2.341.517a13.435,13.435,0,0,0-2.992,1.149,15.24,15.24,0,0,0-4.261,3.1,3.337,3.337,0,0,1-1.628.975,1.264,1.264,0,0,1-.933-.089,5.164,5.164,0,0,1-1.267-.968,1.563,1.563,0,0,1-.555-1.425c.021-.159.025-.32.054-.692Z" transform="translate(-1165.633 -219.927)" fill="#fff"/>
      <path id="패스_9" data-name="패스 9" d="M1269.988,234.316c.454.319.8.561,1.149.809a5.037,5.037,0,0,1,.511.388,1.922,1.922,0,0,1,.65,2.158c-.084.253-.155.51-.239.791-.4.222-.829.435-1.234.685a4.79,4.79,0,0,1-1.8.627q-3.564.561-7.128,1.127c-.528.083-1.051.191-1.578.282a3.121,3.121,0,0,0-1.18.473,9.449,9.449,0,0,1-1.127.6,3.19,3.19,0,0,1-3.072-.172,1.764,1.764,0,0,1-.8-.747,4.071,4.071,0,0,0-.269-.4,3.71,3.71,0,0,1-.855-2.836c.008-.747.062-1.492.011-2.24a.538.538,0,0,1,.33-.513,6.9,6.9,0,0,1,1.33-.5c1.15-.236,2.308-.441,3.472-.594a11.061,11.061,0,0,1,1.761-.005,7.671,7.671,0,0,0,2.072-.144,2.69,2.69,0,0,1,.628-.044c.424,0,.85.048,1.27.015a4.84,4.84,0,0,1,1.434-.018c.469.1.963-.114,1.427.1l3.242.161Z" transform="translate(-1164.283 -209.529)" fill="#fff"/>
      <path id="패스_10" data-name="패스 10" d="M1343.5,260.146c-.47,0-.941.017-1.41-.008a2.956,2.956,0,0,1-.786-.152c-.947-.323-1.877-.7-2.833-.993-1.021-.315-2.06-.574-3.1-.825a4.9,4.9,0,0,0-1-.066,1.608,1.608,0,0,0-1.262.511c-.772.818-1.561,1.623-2.284,2.48a11.241,11.241,0,0,0-1.758,3.068,3.972,3.972,0,0,1-2.387,2.207,3.4,3.4,0,0,1-3.9-.653c-1.422-.706-1.827-2.013-2.1-3.386a1.888,1.888,0,0,1,.042-.775,9.21,9.21,0,0,0,.087-3.7,3.812,3.812,0,0,1,.307-2.28c.582-1.316.987-2.7,1.531-4.038a27.169,27.169,0,0,1,4.3-7.486,14.867,14.867,0,0,0,1.225-1.787,34.753,34.753,0,0,0,2.223-3.251,1.668,1.668,0,0,1,.365-.463,23.654,23.654,0,0,0,3.03-3.89,2.835,2.835,0,0,1,.686-.7,2.71,2.71,0,0,0,.763-.62,1.722,1.722,0,0,1,1.849-.879,1.9,1.9,0,0,0,.6.022,3.084,3.084,0,0,1,1.774.061c.478.183,1.051.012,1.557.292a3.233,3.233,0,0,0,.977.178,1.408,1.408,0,0,1,.58.129c.927.715,2.2.589,3.143,1.25a12.667,12.667,0,0,1,1.25.983,2.543,2.543,0,0,1,1.056,2.587,9.527,9.527,0,0,1-.564,3.066,2.516,2.516,0,0,1-.458.863,5.267,5.267,0,0,1-.9,1.054,25.676,25.676,0,0,0-3.794,4.532,31.19,31.19,0,0,0-2.041,2.659,7.809,7.809,0,0,0-.53,1.046.927.927,0,0,0,.279,1.07c.232.225.579.336.809.561a21.1,21.1,0,0,0,2.461,1.668,3.412,3.412,0,0,0,2.854.657,1.4,1.4,0,0,1,1.136.294,2.623,2.623,0,0,1,1.168,2.166,1.886,1.886,0,0,1-.919,1.644,5.773,5.773,0,0,1-4.026.9Z" transform="translate(-1186.059 -209.007)" fill="#fff"/>
      <path id="패스_11" data-name="패스 11" d="M1363.816,238.465a29.569,29.569,0,0,1,.268-4.288,28.484,28.484,0,0,1,.238-3.495,41.4,41.4,0,0,1,.544-4.654c.2-1.353.347-2.713.52-4.068a10.078,10.078,0,0,1,.172-1.153,30.981,30.981,0,0,0,.822-5.012,5.246,5.246,0,0,1,.151-.764,32.831,32.831,0,0,0,.741-3.839,14.761,14.761,0,0,1,.519-2.278,13.674,13.674,0,0,0,.637-2.657,1.528,1.528,0,0,1,.193-.553,10.435,10.435,0,0,0,.971-4.74.9.9,0,0,1,.435-.824,6.7,6.7,0,0,1,.851-.518c.534-.231.542-.924,1.056-1.119.42-.158.923,0,1.325-.343a1.388,1.388,0,0,1,1.151-.222,10.512,10.512,0,0,0,2,.106,4.214,4.214,0,0,1,4.117,3.1c.053.189.123.373.172.562a2.549,2.549,0,0,1-.247,1.895c-.156.288-.321.572-.5.846a5.092,5.092,0,0,0-.819,2.18q-.31,2.229-.741,4.441a35.448,35.448,0,0,1-.859,3.612,12.683,12.683,0,0,0-.564,2.473,7.079,7.079,0,0,1-.321,1.326,14.038,14.038,0,0,0-.518,2.682c-.188,1.881-.452,3.757-.736,5.627-.5,3.287-1.026,6.568-1.278,9.884-.127,1.688-.189,3.379-.339,5.064a8.081,8.081,0,0,0,.347,2.9,11.265,11.265,0,0,0,.508,1.684,4.528,4.528,0,0,1-.277,3.779,5.643,5.643,0,0,1-1.042,1.42,1.4,1.4,0,0,1-1.105.395,13.04,13.04,0,0,1-2.2-.155,4.007,4.007,0,0,1-2.994-2.065,12.961,12.961,0,0,1-1.114-2.288,4.878,4.878,0,0,0-1.076-2.283,10.74,10.74,0,0,1-1.045-3.141c-.014-.258-.061-.516-.053-.774.022-.913.06-1.825.092-2.737Z" transform="translate(-1199.926 -197.907)" fill="#fff"/>
      <path id="패스_12" data-name="패스 12" d="M1405.308,242.2a.779.779,0,0,0,.041.279,1.162,1.162,0,0,1-.022,1.126,17.651,17.651,0,0,0-1.334,3.264,7.223,7.223,0,0,1-2.266,3.158l-.157.123a8.094,8.094,0,0,1-5.246,2.206c-1.658.225-3.317.449-4.971.7a4.224,4.224,0,0,0-2.493,1.131,2.547,2.547,0,0,1-1.854.631,2.7,2.7,0,0,1-1.988-.8c-.418-.42-.792-.882-1.183-1.328a.369.369,0,0,1-.1-.168c-.143-.91-.655-1.72-.824-2.6a12.024,12.024,0,0,1-.231-3.289,19.06,19.06,0,0,1,.523-4.259,4.584,4.584,0,0,1,.988-2.909c.461-1.423,1.359-2.691,1.546-4.217a1.594,1.594,0,0,1,1.427-1.2,13.248,13.248,0,0,1,1.8-.093,2.024,2.024,0,0,1,2.082,1.235,4.064,4.064,0,0,0,.279.519,1.067,1.067,0,0,0,1.358.511q2.926-1.042,5.84-2.116a.721.721,0,0,0,.491-.574,1.157,1.157,0,0,1,1.074-1c.46-.092.929-.125,1.391-.205a1.05,1.05,0,0,0,.552-.191,1.961,1.961,0,0,1,1.482-.455c.535-.022,1.072-.023,1.607-.026a2.964,2.964,0,0,1,1.98.84,7.161,7.161,0,0,1,.528.589,2.151,2.151,0,0,1,.33,2.7c-.384.753-.594,1.587-.919,2.371-.55,1.326-1.129,2.64-1.732,4.042Zm-14.271,5.891c.376-.072.973-.154,1.552-.306a37.351,37.351,0,0,0,4.31-1.632,2.178,2.178,0,0,0,1.06-.873,14.313,14.313,0,0,0,.943-1.725c.269-.6.409-1.245.686-1.836a4.292,4.292,0,0,0,.438-1.484,14.236,14.236,0,0,1,.4-1.707.532.532,0,0,0-.638-.555c-.77.224-1.539.447-2.307.68a1.722,1.722,0,0,0-.546.238,4.972,4.972,0,0,1-1.469.613,9.892,9.892,0,0,0-2.019.869,14.3,14.3,0,0,1-1.687,1.037,2.333,2.333,0,0,0-1.1,1.1,3.6,3.6,0,0,0-.519,1.462,9.675,9.675,0,0,1-.256,1.339c-.1.512-.212,1.021-.3,1.534a1.094,1.094,0,0,0,1.024,1.214c.068,0,.134.009.427.026Z" transform="translate(-1206.017 -208.774)" fill="#fff"/>
      <path id="패스_13" data-name="패스 13" d="M1408.1,266.9a4.153,4.153,0,0,1,.124-.624,1.718,1.718,0,0,0-.068-1.332,1.424,1.424,0,0,1,.043-1.321,7.4,7.4,0,0,0,.6-2.266,4.714,4.714,0,0,0,.066-.781,2.505,2.505,0,0,1,1.954-2.442c.19-.064.388-.106.58-.163a2.977,2.977,0,0,1,3.016.537,4.169,4.169,0,0,0,1.03.6,1.841,1.841,0,0,1,1.156,1.264.6.6,0,0,0,.609.4c.46-.088.927-.163,1.375-.292a17.541,17.541,0,0,0,1.711-.574,30.861,30.861,0,0,1,6.6-1.694c.726-.119,1.436-.32,2.153-.484.2-.044.389-.1.588-.133,1.722-.279,3.444-.577,5.171-.825,1.792-.258,3.6-.423,5.384-.706a47.259,47.259,0,0,1,4.8-.54,6.637,6.637,0,0,0,1.388-.241,7.488,7.488,0,0,1,2-.2,29.031,29.031,0,0,1,4.41.357,1.428,1.428,0,0,1,.989.614c.226.323.473.634.683.968a1.536,1.536,0,0,1-.179,2.139,3.1,3.1,0,0,1-1.289.892,20.1,20.1,0,0,1-4.915.968c-.333.037-.676.024-1,.087-2.174.42-4.363.749-6.552,1.083-.862.132-1.722.266-2.588.372-2.931.357-5.874.616-8.805.966a16.167,16.167,0,0,0-1.979.365q-2.045.509-4.074,1.083c-1.541.438-3.1.835-4.6,1.4-1.371.515-2.667,1.216-3.988,1.853a2.371,2.371,0,0,0-.623.482c-.367.379-.692.8-1.065,1.172a2.362,2.362,0,0,1-2.769.491,7.763,7.763,0,0,1-1.005-.631,1.526,1.526,0,0,1-.7-1.134c-.07-.582-.154-1.164-.224-1.7Z" transform="translate(-1214.184 -216.313)" fill="#fff"/>
      <path id="패스_14" data-name="패스 14" d="M1424.631,242.375c.045-.575.071-.706.064-.834a19.476,19.476,0,0,1,.981-6.344c.068-.252.175-.5.221-.751a25.229,25.229,0,0,1,1.733-4.99,23.932,23.932,0,0,0,1.08-2.733,2.7,2.7,0,0,1,.762-1.13,1.221,1.221,0,0,1,1.086-.371,7.316,7.316,0,0,1,4.823,3.2,3.647,3.647,0,0,1,.243,3.39c-1.2,2.412-1.935,4.993-2.939,7.475a10.5,10.5,0,0,1-1.255,2.438,7.324,7.324,0,0,0-.859,1.539c-.231.539-.511,1.058-.768,1.588-.2.412-.425.814-.589,1.239-.641,1.643-.444,1.4-2.275,1.747a1.53,1.53,0,0,1-1.414-.592,2.663,2.663,0,0,1-.67-1.606c-.108-1.232-.172-2.467-.225-3.262Z" transform="translate(-1219.534 -206.698)" fill="#fff"/>
    </g>
    <g id="그룹_4" data-name="그룹 4" transform="translate(1222.494 256.704)">
      <g id="그룹_3" data-name="그룹 3" transform="translate(59.927 6.839)">
        <path id="패스_15" data-name="패스 15" d="M1371.151,301.879a2.4,2.4,0,0,0-1.347-.7c-.8-.106-1.608-.165-2.417-.227a1.772,1.772,0,0,0-.495.074,6.037,6.037,0,0,0-1.29.451,13.556,13.556,0,0,1-2.923.927c-.123.028-.338-.139-.318-.254.1-.573.186-1.148.332-1.718.263-1.041.54-2.079.744-3.126a7.2,7.2,0,0,1,1.533-3.433,1.661,1.661,0,0,0,.194-.277,1.643,1.643,0,0,0,.209-1.227,2.539,2.539,0,0,0-1.231-1.624,13.228,13.228,0,0,1-2.172-1.12c-.084-.073-.311-.023-.47,0a.823.823,0,0,0-.31.147,1.842,1.842,0,0,1-1.74.265.484.484,0,0,0-.336,0,1.105,1.105,0,0,0-.781,1.128,2.314,2.314,0,0,1-.084.93c-.274.768-.6,1.528-.931,2.284-.31.7-.65,1.4-.98,2.1-.378.8-.77,1.593-1.138,2.4a10.5,10.5,0,0,0-1.05,2.912,3.656,3.656,0,0,1-.211.778,21.433,21.433,0,0,0-.9,4.54,3.9,3.9,0,0,0-.031.624c.033,1.652.1,3.3.1,4.955a10.339,10.339,0,0,0,.465,3.23l.026.06c-.171.317-.345.629-.534.93-.968,1.539-1.976,3.053-2.955,4.586-.46.721-.9,1.457-1.327,2.2-.508.882-1.043,1.751-1.471,2.67a8.541,8.541,0,0,0-.436,1.7c-.083.366-.163.733-.213,1.1a3.344,3.344,0,0,0-.025.8,3.138,3.138,0,0,0,1.386,2.422c.4.271.789.553,1.173.843a1.356,1.356,0,0,0,.9.271,1.927,1.927,0,0,0,.786-.1,6.524,6.524,0,0,1,1.385-.388,7.013,7.013,0,0,0,2.171-1.02c.743-.526,1.506-1.025,2.256-1.541.4-.273.792-.551,1.173-.847a7.181,7.181,0,0,0,1.776-2.055,10.726,10.726,0,0,0,1.292-5.083,4.9,4.9,0,0,0-.033-.963,2.967,2.967,0,0,0-.8-1.884,8.061,8.061,0,0,0-2.793-2.1.124.124,0,0,1-.075-.094,5.757,5.757,0,0,0,1.408-1.266l.033-.024-.019,0a6.5,6.5,0,0,1,.732-2.926,3.252,3.252,0,0,1,1.238-1.39,31.514,31.514,0,0,1,3.689-1.9,14.524,14.524,0,0,0,2.628-1.2,6.108,6.108,0,0,1,1.1-.477c.372-.151.759-.271,1.117-.453a2.338,2.338,0,0,0,.681-.513,7.43,7.43,0,0,0,1.771-4.015A1.576,1.576,0,0,0,1371.151,301.879Zm-14.976,22.981a15.344,15.344,0,0,1-4.363,4.381.7.7,0,0,1-.449.027c-.157-.025-.33-.339-.322-.511a2.029,2.029,0,0,1,.04-.474,14.929,14.929,0,0,1,.5-1.516,46.943,46.943,0,0,1,2.526-5.158,4.791,4.791,0,0,1,.59-.74.546.546,0,0,1,.588-.1,1.976,1.976,0,0,1,1.353,1.632c.033.21.052.42.072.588A3.766,3.766,0,0,1,1356.176,324.86Z" transform="translate(-1346.628 -289.591)" fill="#fff"/>
      </g>
      <path id="패스_16" data-name="패스 16" d="M1496.913,300.3c-.228-.282-.387-.471-.536-.668a4.61,4.61,0,0,0-1.476-1.454.694.694,0,0,1-.295-.489,3.906,3.906,0,0,1-.054-1.23,1.333,1.333,0,0,0-.228-1.144,1.162,1.162,0,0,1-.17-.719,1.965,1.965,0,0,0-.23-1.016c-.1-.2.048-.4.222-.564.207-.192.427-.374.641-.561.134-.656.679-.848,1.238-1.021a64.267,64.267,0,0,0,6.41-2.484,25.371,25.371,0,0,1,4.381-1.431c.329-.076.656-.177.983-.269.547-.152,1.1-.262,1.644-.4a35.62,35.62,0,0,1,4.812-.746,13.673,13.673,0,0,1,3.115.012c.534.062,1.061.149,1.595.21a5.105,5.105,0,0,1,1.868.349,4.85,4.85,0,0,1,1.805.507,5.478,5.478,0,0,0,1.827.476,1.823,1.823,0,0,1,.863.314.958.958,0,0,1,.536.852c0,.363,0,.726-.006,1.089a1.558,1.558,0,0,1-.418,1.042c-.228.255-.42.537-.625.81a.706.706,0,0,0-.165.6.979.979,0,0,1-.167.9,2.2,2.2,0,0,1-.98.926,50.189,50.189,0,0,1-4.826,1.787c-.768.2-1.533.379-2.312.5-.993.158-1.987.34-2.982.495a.982.982,0,0,0-.852.9,1.119,1.119,0,0,0,0,.309,1.551,1.551,0,0,1-.069.772,8.906,8.906,0,0,0-.334,1.248,13.48,13.48,0,0,1-1.041,3.383,2.119,2.119,0,0,0-.24.768,1.687,1.687,0,0,1-.541,1.162,3.875,3.875,0,0,0-.756,1.471c-.331.925-.725,1.826-1.144,2.724a1.553,1.553,0,0,0-.145,1.078c.02.069.169.162.22.139a16.958,16.958,0,0,0,1.865-.868c.993-.591,1.945-1.257,2.918-1.883.34-.219.691-.421,1.04-.624a6.966,6.966,0,0,0,.9-.521,26.822,26.822,0,0,1,3.122-1.856c.989-.6,1.97-1.221,2.989-1.762,1.272-.677,2.581-1.282,3.872-1.92.414-.205.829-.407,1.231-.634,1.458-.826,1.447-.51,1.736-2.179a4.5,4.5,0,0,1,.522-1.7,36.257,36.257,0,0,0,.984-4.06,2.315,2.315,0,0,1,.116-.625c.785-1.929,1.374-3.9,2.363-5.785a11.79,11.79,0,0,0,1.051-2.749,3.434,3.434,0,0,1,.339-.913,3.221,3.221,0,0,1,2.371-1.528,6.048,6.048,0,0,1,1.314-.011.717.717,0,0,1,.442.135c.476.464,1.237.5,1.738.947a4.026,4.026,0,0,0,1.271.549,1.627,1.627,0,0,1,.845.618c.471.758,1.093,1.406,1.516,2.2a3.96,3.96,0,0,1,.209,3.141c-.139.466-.3.929-.46,1.393-.1.31-.223.616-.326.926-.31.923-.352,1.863-.674,2.8a15.64,15.64,0,0,0-.479,2.663,2.4,2.4,0,0,0,.007.463c0,.113.25.208.386.148.366-.165.735-.319,1.095-.5q1.707-.852,3.474-1.533c.107-.042.214-.084.32-.131a2.01,2.01,0,0,0,1.083-1.041,48.478,48.478,0,0,0,3.278-9.071,5.532,5.532,0,0,1,.681-1.5,8.622,8.622,0,0,1,2.194-2.6,6.3,6.3,0,0,1,3.947-1.421,3.938,3.938,0,0,1,1.543.321,3.441,3.441,0,0,0,1.384.3,1.3,1.3,0,0,1,.971.419q.31.323.613.656a.9.9,0,0,1,.217.7,6.024,6.024,0,0,1-.358,1.721,5.829,5.829,0,0,0-.253.609c-.1.412-.119.835-.256,1.24s-.423.789-.57,1.2c-.391,1.079-.8,2.158-1.1,3.25-.431,1.561-.967,3.1-1.479,4.649-.174.527-.509.981-.687,1.5-.44,1.286-1,2.553-1.4,3.845-.437,1.4-1.113,2.745-1.623,4.127-.434,1.178-.8,2.371-1.156,3.563a7.4,7.4,0,0,1-.451,1.22,14.259,14.259,0,0,0-.5,1.378,23.314,23.314,0,0,0-1.131,3.561,5.209,5.209,0,0,1-.312.928,57.586,57.586,0,0,0-1.892,5.555,9.373,9.373,0,0,0-.285,1.1c-.21,1.206-.624,2.39-.934,3.584a22.324,22.324,0,0,0-.985,5.794,15.058,15.058,0,0,1-.313,2.979,19.477,19.477,0,0,0-.265,3.748c0,1.45-.075,2.91.008,4.349a3.953,3.953,0,0,0,.53,2.026,1.505,1.505,0,0,1,.225,1.167,6.447,6.447,0,0,0,.221,2.895,9.606,9.606,0,0,1,.421,2.08,6.887,6.887,0,0,1,.039,1.536,2.306,2.306,0,0,0,.064.76,1.093,1.093,0,0,1-.269.9,1.941,1.941,0,0,0-.62,1.453.641.641,0,0,1-.32.557c-.479.317-.973.613-1.549.972a11.563,11.563,0,0,0-.922,1.663,3.6,3.6,0,0,1-1.556,1.755.97.97,0,0,1-.477.146,10.316,10.316,0,0,1-1.143-.043,1.828,1.828,0,0,1-1.114-.493,3.615,3.615,0,0,1-.9-1.174q-.412-.963-.86-1.906c-.169-.357-.371-.7-.562-1.046a3.817,3.817,0,0,1-.291-.518,5.613,5.613,0,0,0-.486-1.4c-.293-.406-.5-.853-.751-1.277a1.19,1.19,0,0,1-.134-.891,3.949,3.949,0,0,0-.1-1.985,2.513,2.513,0,0,1-.051-1.073,4.984,4.984,0,0,0-.016-1.7c-.137-.85-.106-1.737-.2-2.6-.124-1.168-.148-2.36-.191-3.543a19.261,19.261,0,0,1,0-2.173c.117-1.566.217-3.129.278-4.69a34.519,34.519,0,0,1,.372-3.449c.3-2.144.618-4.291.969-6.435.12-.73.356-1.459.551-2.187a9.433,9.433,0,0,0,.3-.928c.383-2.42,1.289-4.786,1.864-7.185a6.381,6.381,0,0,1,.354-.915,11.733,11.733,0,0,0,.791-2.316,5.783,5.783,0,0,1,.687-1.669,1.913,1.913,0,0,0,.179-1.079.392.392,0,0,0-.545-.357c-.106.044-.212.089-.316.14a8.808,8.808,0,0,1-1.924.728,1.2,1.2,0,0,0-.946.879c-.365,1.243-.733,2.483-1.026,3.736a23.744,23.744,0,0,1-.992,3.1,3.622,3.622,0,0,1-1.419,1.663,1.716,1.716,0,0,1-.629.258q-1.578.269-3.158.49a1.868,1.868,0,0,1-1.232-.248,8.429,8.429,0,0,1-.892-.577.947.947,0,0,1-.351-.467c-.187-.743-.681-1.328-.924-2.038a13.411,13.411,0,0,0-.814-2.088,2.641,2.641,0,0,1-.19-1.193c-.01-1.238-.155-2.457-.1-3.706a1.337,1.337,0,0,0-.139-.573.286.286,0,0,0-.265-.1,2.024,2.024,0,0,0-.628.233c-.776.5-1.534,1.034-2.306,1.545-1.109.734-2.231,1.45-3.336,2.191-.672.45-1.32.936-1.981,1.4-1.418,1-2.831,2.009-4.258,3a21.18,21.18,0,0,0-1.9,1.51,18.444,18.444,0,0,1-3.053,2.274c-.55.311-1.139.55-1.712.814a3.613,3.613,0,0,1-3.019-.049,2.727,2.727,0,0,1-1.838-1.854,3.012,3.012,0,0,1-.305-1,2.224,2.224,0,0,0-.455-1.24.714.714,0,0,1-.088-.577,1.623,1.623,0,0,0-.082-1.2,1.72,1.72,0,0,1,.2-1.655,11.2,11.2,0,0,0,1.045-2.254,6.55,6.55,0,0,1,.425-.9,68.058,68.058,0,0,1,5.1-8.311c.623-.875,1.3-1.718,1.944-2.581a.436.436,0,0,0,.068-.3.363.363,0,0,0-.156-.232.448.448,0,0,0-.3-.055c-.993.209-1.994.376-2.973.659a13.046,13.046,0,0,0-3.948,2.1c-.422.305-.836.621-1.259.925a1.254,1.254,0,0,1-.8.226,3.7,3.7,0,0,1-1.829-.45,4.813,4.813,0,0,0-1.648-.6Z" transform="translate(-1334.111 -279.504)" fill="#fff"/>
      <path id="패스_17" data-name="패스 17" d="M1591.354,310.338c.566,0,1,.01,1.442,0a1.562,1.562,0,0,0,.655-.06c1.013-.509,2.08-.342,3.113-.671s2.085-.53,3.133-.757a14.578,14.578,0,0,1,1.662-.246c1.273-.122,2.542-.478,3.817-.555a6.065,6.065,0,0,0,.993-.215.662.662,0,0,0,.424-.478.933.933,0,0,0,.021-.156,7.738,7.738,0,0,1,1.354-3.8c.339-.58.666-1.166,1.026-1.736.208-.329.482-.627.708-.948a5.348,5.348,0,0,0,.427-.709.29.29,0,0,0-.067-.271,1.151,1.151,0,0,0-1.183-.282c-.716.224-1.435.208-2.14.4-.6.161-1.187.407-1.778.62-.431.155-.856.336-1.292.469a10.534,10.534,0,0,0-2.5,1.131,5.335,5.335,0,0,1-1.245.557,5.747,5.747,0,0,0-1.516.812,11.042,11.042,0,0,1-2.521,1.088,1.448,1.448,0,0,1-.65.024c-.374-.04-.732-.147-1.109-.163a4.045,4.045,0,0,1-1.486-.458,1.774,1.774,0,0,1-.871-.8c-.281-.525-.53-1.069-.831-1.581a1.835,1.835,0,0,1-.195-1.335c.138-.677.357-1.349.539-2.023a10.829,10.829,0,0,0,1.26-3.36c.108-.416.215-.832.326-1.268.322-.4.975-.363,1.232-.862a4.152,4.152,0,0,1,2.514-.924,6.481,6.481,0,0,0,1.656-.208c1.267-.293,2.537-.556,3.807-.823a22.55,22.55,0,0,0,4.112-1.02,2.326,2.326,0,0,1,.657-.1c.5-.045.992-.077,1.489-.123,1.272-.119,2.544-.253,3.816-.365a10.178,10.178,0,0,1,2.752.2,8.927,8.927,0,0,1,2.124.581,3.556,3.556,0,0,0,1.7.359,1.2,1.2,0,0,1,1.171.622,3.486,3.486,0,0,0,1.04,1.059,4.664,4.664,0,0,1,1.679,2.754,8.685,8.685,0,0,1,.3,1.638,4.09,4.09,0,0,1-.728,2.752c-.378.5-.76.994-1.158,1.478a3.064,3.064,0,0,1-.5.456c-.229.175-.468.34-.712.5a18.581,18.581,0,0,0-2.68,2.177,12.475,12.475,0,0,1-1.33,1.107,3.372,3.372,0,0,0-.538.435c-.337.365-.892.729-.674,1.22.173.387.742.315,1.164.273,1.383-.138,2.76-.159,4.152-.4a25.261,25.261,0,0,1,2.981-.3c1.823-.095,3.646-.279,5.476-.536.83-.117,1.659-.148,2.49-.332a4.146,4.146,0,0,1,.828-.058c1.265-.02,2.527-.026,3.792-.052a15.919,15.919,0,0,0,1.65-.106,2.088,2.088,0,0,1,1.429.084c.652.031,1.3.086,1.958.088a20.948,20.948,0,0,1,2.756.2c1.167.16,2.354.249,3.528.384.427.049.842.144,1.259.225,1.305.256,2.612.506,3.913.776.516.108,1.021.256,1.519.411a.565.565,0,0,1,.338.277,5.751,5.751,0,0,0,1.358,1.94,5.723,5.723,0,0,1,.809,1.9,1.877,1.877,0,0,1-.236,1.381c-.124.187-.213.393-.323.586a1.014,1.014,0,0,0-.115.912,1.23,1.23,0,0,1-.059,1.2c-.156.275.032.491.092.729a.329.329,0,0,1-.1.275,3.04,3.04,0,0,1-.749.422c-1.2.37-2.411.62-3.624.873a3.41,3.41,0,0,1-1.141,0c-1.009-.14-2.026-.267-3-.491a30.844,30.844,0,0,0-4.135-.611,40.108,40.108,0,0,0-5.839-.368,4.659,4.659,0,0,1-.816-.029,22.666,22.666,0,0,1-4.089-.709,4,4,0,0,0-.939-.183,19.89,19.89,0,0,0-3.92-.119,15.324,15.324,0,0,1-1.646.026,10.105,10.105,0,0,0-2.146.168,7.3,7.3,0,0,1-2.3.029c-.431-.033-.866-.045-1.3-.055a.6.6,0,0,0-.519.37,1.44,1.44,0,0,0-.057.153,20.165,20.165,0,0,1-1.272,4.5,1.437,1.437,0,0,0-.1.311,27.589,27.589,0,0,1-.951,3.427c-.214.778-.512,1.547-.772,2.319a15.1,15.1,0,0,0-.856,2.951,7.748,7.748,0,0,1-1.293,3.175,2.872,2.872,0,0,1-4.018,1.117c-.168-.113-.311-.255-.481-.366a.825.825,0,0,0-.409-.19c-.925.008-1.337-.7-1.958-1.1a2.654,2.654,0,0,1-.892-1.345,12.4,12.4,0,0,1-.7-3.088,4.811,4.811,0,0,1,.625-3.059c.484-.879.871-1.8,1.378-2.665a29.7,29.7,0,0,0,1.977-4.2c.1-.25.3-.471.293-.753,0-.119-.138-.307-.272-.3a41.592,41.592,0,0,0-4.644.538c-.277.045-.554.108-.829.13a64.115,64.115,0,0,0-7.134,1.187,15.16,15.16,0,0,1-2.321.343,4.835,4.835,0,0,0-2.416.741c-.343.212-.724.356-1.084.54a2.747,2.747,0,0,1-1.939.2,2.881,2.881,0,0,1-2.385-2.258,7.18,7.18,0,0,1-.166-1.52.751.751,0,0,1,.026-.312,8.654,8.654,0,0,1,1.163-2.542,4.225,4.225,0,0,0,.889-1.764.828.828,0,0,1,.811-.726,2.653,2.653,0,0,1,.5-.044,1.811,1.811,0,0,0,1.239-.5c.087-.071.189-.127.317-.21Z" transform="translate(-1363.897 -282.598)" fill="#fff"/>
      <path id="패스_18" data-name="패스 18" d="M1278.643,297.892a19.46,19.46,0,0,0,4.154-.2,1.493,1.493,0,0,1,.488-.012c.537.056,1.068.127,1.6.186a.689.689,0,0,1,.551.239,1.732,1.732,0,0,0,.886.561,2.57,2.57,0,0,1,1.4,2.172,1.763,1.763,0,0,1,0,.465,5.32,5.32,0,0,1-1.393,2.594,19.081,19.081,0,0,0-3.172,3.573,4.561,4.561,0,0,1-.563.622,24.789,24.789,0,0,0-2.533,2.8,7.867,7.867,0,0,0-.626,1,.528.528,0,0,0,.2.666,14.656,14.656,0,0,0,1.856.774,20.807,20.807,0,0,1,2.822,1.241,2.845,2.845,0,0,0,1.156.407,2.388,2.388,0,0,1,.607.163,1.081,1.081,0,0,1,.7,1.565c-.176.4-.354.809-.567,1.2a2.205,2.205,0,0,1-1.457,1.107,4.3,4.3,0,0,1-2.588.007c-.532-.194-1.125-.274-1.687-.416a1.6,1.6,0,0,1-.426-.174c-.7-.414-1.4-.822-2.085-1.257-.382-.245-.718-.549-1.093-.8a1.6,1.6,0,0,0-.565-.228.619.619,0,0,0-.616.2c-1.069,1.33-2.143,2.659-3.179,4.009a15.3,15.3,0,0,0-.98,1.567,2.65,2.65,0,0,1-.84.847,1.546,1.546,0,0,1-1.43.223,1.744,1.744,0,0,1-1.283-2.118c.083-.783.173-1.566.23-2.347a10.658,10.658,0,0,1,1.293-4.316,48.039,48.039,0,0,1,3.145-5.176c.624-.871,1.377-1.67,2.06-2.509a1.267,1.267,0,0,0,.177-.426c.008-.025-.064-.077-.111-.092a.241.241,0,0,0-.163,0,19.7,19.7,0,0,1-2.591.857,29.293,29.293,0,0,0-3.847,1.486,9.427,9.427,0,0,0-1.349.768,7.818,7.818,0,0,1-.9.511,5.281,5.281,0,0,0-.876.55,14.068,14.068,0,0,1-2.387,1.4,4.265,4.265,0,0,1-3.071.239,1.364,1.364,0,0,1-.963-.89,3.824,3.824,0,0,1-.29-2.4,7.857,7.857,0,0,0-.013-3.079c-.033-.251-.067-.5-.079-.759a1.258,1.258,0,0,1,1.332-1.2,3.668,3.668,0,0,0,1.786-.475l3.115-1.5c.156-.075.305-.17.464-.232a65.758,65.758,0,0,1,6.96-2.419c.767-.2,1.533-.428,2.3-.6a15.126,15.126,0,0,1,3.644-.393c.382.006.76.035.79.037Z" transform="translate(-1258.247 -285.351)" fill="#fff"/>
      <path id="패스_19" data-name="패스 19" d="M1309.954,293.392c.648-.136,1.149-.2,1.634-.352a3.569,3.569,0,0,1,1.629-.079,2.1,2.1,0,0,1,1.941,1.844,1.929,1.929,0,0,1-.264,1.383,4.589,4.589,0,0,1-.786,1.1,2.918,2.918,0,0,0-.845,1.426c-.57,2.024-1.512,3.977-2.107,6a6.073,6.073,0,0,1-.383.911,2.8,2.8,0,0,0-.247,1.088c-.017.283.19.431.529.363a2.528,2.528,0,0,0,.658-.146,9.91,9.91,0,0,1,2.787-.637,7.568,7.568,0,0,1,2.46-.016,1.893,1.893,0,0,1,1.733,2.119,1.279,1.279,0,0,1-.134.462,14.5,14.5,0,0,1-.753,1.305c-.379.561-.814,1.093-1.207,1.648a1.671,1.671,0,0,1-1.138.69,54.816,54.816,0,0,0-5.429,1.374,1.031,1.031,0,0,0-.164.047,15.326,15.326,0,0,0-2.007.966c-.721.479-.559,1.277-.728,1.928a63.99,63.99,0,0,0-1.733,9.883,21.887,21.887,0,0,0-.092,3.115c.037.818.28,1.6.374,2.407.142,1.216.488,2.379.516,3.624a1.382,1.382,0,0,0,.066.452c.468,1.218.531,2.573.914,3.819a5.572,5.572,0,0,1,.154.9,1.643,1.643,0,0,1-.162,1.083,2.4,2.4,0,0,0-.275,1.386c.011.54-.169.748-.75.953-.377.134-.758.245-1.172.377a4.256,4.256,0,0,1-2.612-2.119,6.2,6.2,0,0,0-1.745-2.217c.06-.389.126-.748.168-1.106.037-.313.048-.627.069-.939a2.076,2.076,0,0,0,.027-.619,3.515,3.515,0,0,1,.029-1.693,3.625,3.625,0,0,0,0-1.081c-.107-1.225-.248-2.442-.347-3.668a54.479,54.479,0,0,1,0-7.145c.029-.573.094-1.15.165-1.726.214-1.727.4-3.455.671-5.182.222-1.411.515-2.825.84-4.233.433-1.878.862-3.76,1.413-5.624.69-2.327,1.436-4.645,2.356-6.94.755-1.881,1.669-3.723,2.326-5.626a1.471,1.471,0,0,1,.5-.668c.36-.289.737-.556,1.11-.832Z" transform="translate(-1271.834 -283.818)" fill="#fff"/>
      <path id="패스_20" data-name="패스 20" d="M1328.539,302.035a5.63,5.63,0,0,0,2.187-.376c1.474-.453,2.95-.9,4.427-1.332a3.378,3.378,0,0,0,1.207-.553.842.842,0,0,1,.619-.138.737.737,0,0,0,.46-.061,4.4,4.4,0,0,1,2.171-.665,1.289,1.289,0,0,1,.77.044,7.857,7.857,0,0,0,2.537.552c.207.016.406.066.634.105.171.224.347.456.526.686s.369.461.551.694a1.173,1.173,0,0,1,.193,1.162,8.217,8.217,0,0,1-.845,2,7.959,7.959,0,0,0-.646,1.365,11.275,11.275,0,0,1-1.406,2.5c-.333.458-.638.935-.934,1.371-.06.718.395,1.206.341,1.879-.073.128-.16.273-.239.422a2.323,2.323,0,0,1-1.1,1,12.338,12.338,0,0,1-2.507.844c-.589.155-1.142.42-1.717.6a1.447,1.447,0,0,0-.945.918,25.159,25.159,0,0,1-1.58,3.335.3.3,0,0,0,.052.271.345.345,0,0,0,.268.093,1.4,1.4,0,0,0,.473-.126c1.564-.774,3.164-1.435,4.765-2.084a13.713,13.713,0,0,1,2.787-1.088,1.6,1.6,0,0,0,.591-.3,3.733,3.733,0,0,1,1.23-.511,1.222,1.222,0,0,1,1.409.338,5.526,5.526,0,0,0,.42.431,2.093,2.093,0,0,1-1,1.492c-.715.462-1.446.9-2.193,1.293-1.394.738-2.777,1.486-4.113,2.36a19.059,19.059,0,0,1-2.974,1.58,11.6,11.6,0,0,0-2.61,1.577,1.991,1.991,0,0,1-.876.443,1.4,1.4,0,0,0-.593.285,2.582,2.582,0,0,1-1.7.506,1.279,1.279,0,0,1-1.259-.683,8.161,8.161,0,0,1-.563-1.392,2.692,2.692,0,0,1,.343-2.175,10.238,10.238,0,0,0,.68-1.345,8,8,0,0,1,.712-1.153.324.324,0,0,0-.163-.378c-.2-.033-.407-.06-.612-.088a2.424,2.424,0,0,1-1.659-.91,9.47,9.47,0,0,1-1.019-1.6,3.3,3.3,0,0,1,.9-1.267,1,1,0,0,1,.413-.282,28.323,28.323,0,0,0,3.413-1.343,14.979,14.979,0,0,1,2.2-.73,5.147,5.147,0,0,0,.79-.243,5.073,5.073,0,0,1,1.415-.4,1.323,1.323,0,0,0,1.05-1.17c-.02-.582.112-1.164.14-1.741a10.2,10.2,0,0,1,.338-2.232,1.6,1.6,0,0,0,.006-.469.338.338,0,0,0-.443-.283c-.5.242-1.01.481-1.507.746-.847.45-1.675.945-2.53,1.373a3.762,3.762,0,0,1-2.81.322,1.131,1.131,0,0,1-.52-.275,3.458,3.458,0,0,1-1-2.916,3.926,3.926,0,0,1,1.047-2.274Z" transform="translate(-1279.943 -285.739)" fill="#fff"/>
      <path id="패스_21" data-name="패스 21" d="M1416.979,321.377c.175-.622.344-1.246.525-1.869s.349-1.25.577-1.865c.218-.584.175-1-.374-1.308a8,8,0,0,1-1.223-.886,1.935,1.935,0,0,1-.442-.589,1.217,1.217,0,0,1,0-1.2c.678-1.272.48-1.49,2.392-1.777a6.486,6.486,0,0,1,1.161-.107,3.793,3.793,0,0,0,2.219-.774.85.85,0,0,0,.317-.385,6.518,6.518,0,0,0,.332-2.474.408.408,0,0,0-.415-.367c-.771.065-1.544.107-2.314.229-.492.081-.983.241-1.482.334s-.918.461-1.449.478c-.192.005-.4.217-.611.3a12.535,12.535,0,0,1-1.688.857,4.755,4.755,0,0,1-2.558.81c-1.185.148-1.217.048-1.762-.863a2.571,2.571,0,0,1-.286-1.78,2.108,2.108,0,0,1,1.4-1.584,4.256,4.256,0,0,1,.82-.224,17.461,17.461,0,0,0,4.029-1.429,17.888,17.888,0,0,1,3.047-1.042,16.165,16.165,0,0,1,3.3-.623,3.53,3.53,0,0,0,1.3-.373,2.692,2.692,0,0,1,1.47-.212q1.125.118,2.236.3a2.888,2.888,0,0,1,1.381.648.811.811,0,0,1,.273.349,2.464,2.464,0,0,1,.035,1.962c-.639,1.347-1.037,2.757-1.734,4.089a1.449,1.449,0,0,0-.156.923,7.1,7.1,0,0,1,.152.9,1.917,1.917,0,0,1-.734,1.592,21.64,21.64,0,0,0-1.811,1.608,4.676,4.676,0,0,1-.871.553,8.8,8.8,0,0,0-.861.582,1.4,1.4,0,0,0-.417.526c-.443,1.119-.861,2.245-1.279,3.372a.4.4,0,0,0,.029.295c.038.074.148.172.215.156.875-.209,1.755-.408,2.622-.666.98-.292,1.943-.684,2.925-.952a5.092,5.092,0,0,0,2.493-1.461.985.985,0,0,1,.917-.321,7.172,7.172,0,0,1,.8.1.651.651,0,0,1,.338.273,1.206,1.206,0,0,1,.018,1.325,3.3,3.3,0,0,1-1.217,1.4c-.84.508-1.665,1.054-2.539,1.484-1.136.561-2.312,1.016-3.49,1.471a26.3,26.3,0,0,0-4.058,1.9,2.588,2.588,0,0,1-2.383.192,1.418,1.418,0,0,1-.793-.865,5.074,5.074,0,0,1-.372-3Z" transform="translate(-1307.054 -286.95)" fill="#fff"/>
      <path id="패스_22" data-name="패스 22" d="M1465.274,322.5c.539.42,1.084.856,1.645,1.278a1.166,1.166,0,0,0,1.073.159,11.877,11.877,0,0,0,1.137-.361.613.613,0,0,0,.328-.359c.13-1.147.232-2.293.335-3.438a1.214,1.214,0,0,0-.05-.3.409.409,0,0,0-.492-.261,4.07,4.07,0,0,0-.482.182,20.344,20.344,0,0,1-3.313,1.412,3.646,3.646,0,0,0-1.755,1.044,2.233,2.233,0,0,1-1.56.591,1.163,1.163,0,0,1-.611-.126,14.768,14.768,0,0,1-1.439-.852c-.414-.283-.781-.622-1.118-.9a5.681,5.681,0,0,0-.305-1.06,3.954,3.954,0,0,0-.593-.662c-.18-.207-.116-.483.139-.688a1.554,1.554,0,0,1,.75-.4,22.955,22.955,0,0,0,4.584-1.246c1.832-.638,3.665-1.274,5.5-1.882a23.369,23.369,0,0,1,2.3-.621,7.6,7.6,0,0,0,2.837-1.162,1.846,1.846,0,0,1,1.118-.344,10.93,10.93,0,0,0,2.146-.216,13.49,13.49,0,0,1,2.3-.085.756.756,0,0,1,.678.706.9.9,0,0,1-.336.87c-.273.211-.565.4-.856.586-.534.345-1.08.671-1.609,1.022a1.188,1.188,0,0,0-.551.808,11.569,11.569,0,0,1-1.273,3.02c-.494.989-1.1,1.94-1.655,2.909-.2.356-.063.662.31.664a6.308,6.308,0,0,0,.822-.035c.719-.1,1.438-.209,2.158-.319a23.153,23.153,0,0,1,5.092-.1,1.441,1.441,0,0,1,.717.263c.406.294.765.639,1.17.986-.068.313-.162.621-.2.927a1.176,1.176,0,0,1-.968,1.023,4.789,4.789,0,0,0-1.088.507,4.34,4.34,0,0,1-1.927.627c-.663.073-1.328.172-1.989.207a22.888,22.888,0,0,0-4.144.669c-1.705.409-3.424.612-5.129,1.014-.267.062-.549-.016-.818.039a15.336,15.336,0,0,0-1.642.414,3.6,3.6,0,0,1-1.151.157,1.379,1.379,0,0,1-1.082-.509,2.175,2.175,0,0,1-.559-1.364,8.055,8.055,0,0,0-.109-1.991c-.039-.127.044-.305.08-.458.072-.311.166-.621.221-.932a1.376,1.376,0,0,1,.5-.841c.26-.22.459-.522.855-.58Z" transform="translate(-1322.547 -290.032)" fill="#fff"/>
      <path id="패스_23" data-name="패스 23" d="M1435.657,312.078c-.019-.169-.036-.269-.04-.372-.036-.918-.026-.9.939-1.188a11.75,11.75,0,0,0,2.243-.82c1.023-.556,2.106-.9,3.153-1.357a24.726,24.726,0,0,0,2.773-1.41,4.191,4.191,0,0,0,1.626-1.716,58.84,58.84,0,0,1,4.055-6.76,16.994,16.994,0,0,0,1.377-2.651,3.512,3.512,0,0,1,.894-1.216,1.281,1.281,0,0,1,.925-.37c.107.005.215.016.324.018.381.008.767-.3,1.14-.155a13.089,13.089,0,0,1,1.281.534,1.474,1.474,0,0,1,.747,1.384.984.984,0,0,1-.107.464,2.9,2.9,0,0,1-.51.861,9.519,9.519,0,0,0-1.973,3.449c-.571,1.251-1.061,2.524-1.7,3.759-.458.885-.815,1.806-1.235,2.707-.467,1-.938,2-1.434,2.99a11.775,11.775,0,0,0-.961,2.437c-.22.886-.484,1.766-.691,2.653a4.517,4.517,0,0,0-.03,2.461,1.323,1.323,0,0,1,0,.761,18.533,18.533,0,0,0-.468,2.664,10.973,10.973,0,0,1-.229,1.092,2.119,2.119,0,0,1-1.077,1.445,4.566,4.566,0,0,0-.563.4,1.976,1.976,0,0,1-1.9.269,3.864,3.864,0,0,1-1.074-.576,1.9,1.9,0,0,1-.573-.671,3.6,3.6,0,0,1-.409-1.6c0-.774.046-1.555.078-2.335.014-.362.04-.726.063-1.09a3.352,3.352,0,0,1,.065-.78c.445-1.442.552-2.913,1.085-4.352a11.218,11.218,0,0,0,.386-1.714c.041-.2-.242-.37-.435-.274a6.338,6.338,0,0,0-.916.477,8.108,8.108,0,0,1-1.826.966c-.37.146-.706.391-1.068.568a4.505,4.505,0,0,1-1.626.443,1.87,1.87,0,0,1-1.456-.448,9.675,9.675,0,0,1-.855-.949Z" transform="translate(-1315.347 -284.185)" fill="#fff"/>
      <path id="패스_24" data-name="패스 24" d="M1399.96,328.244c-1.1-.217-2.276-.08-3.4-.227a24.442,24.442,0,0,0-2.451-.092.467.467,0,0,0-.166.01,13.056,13.056,0,0,1-2.8.328,9.327,9.327,0,0,0-1.451.469c-.424.136-.827-.117-1.3.058-1.233.459-2.484.856-3.719,1.313-1.29.476-2.56,1.014-3.85,1.483-1.56.568-3.133,1.093-4.7,1.631a3.123,3.123,0,0,1-.815.227c-.494.023-.987.387-1.472.2-.456-.178-.675-.6-.938-.944a1.916,1.916,0,0,1-.3-1.75,7.346,7.346,0,0,1,.517-1.212.718.718,0,0,1,.388-.3c.269-.079.552-.076.825-.142a3.347,3.347,0,0,0,.8-.273,11.894,11.894,0,0,1,2.231-.833c.381-.115.764-.22,1.137-.357.752-.277,1.5-.548,2.27-.768.981-.282,1.943-.655,2.918-.973,2.278-.745,4.572-1.4,6.867-2.051,1.257-.357,2.516-.7,3.785-1a8.358,8.358,0,0,0,2.132-.431,1.047,1.047,0,0,1,.493-.047,31.6,31.6,0,0,1,5.018.394,2.978,2.978,0,0,1,2.188,1.688,2.074,2.074,0,0,1-.444,2.233.811.811,0,0,1-.26.219c-.507.273-1.011.557-1.533.8a3.779,3.779,0,0,1-1.97.351Z" transform="translate(-1295.034 -293.365)" fill="#fff"/>
      <path id="패스_25" data-name="패스 25" d="M1392.52,309.066a3.614,3.614,0,0,0,2.156.85c.647.043,1.282.147,1.913.252a5.939,5.939,0,0,1,1.063.28,1.312,1.312,0,0,1,.8.842,1,1,0,0,1-.539,1.085q-.241.1-.484.173a11.148,11.148,0,0,0-1.951.6.551.551,0,0,1-.322.06,14.237,14.237,0,0,0-2.627.175,3.229,3.229,0,0,1-1.552-.256c-.313-.165-.674-.228-.971-.4a10.523,10.523,0,0,0-2.678,3.766,3.047,3.047,0,0,1-.414.715c-.409.544-.8,1.1-1.169,1.664a2.285,2.285,0,0,1-1.327,1.01c-.544.155-1.076.381-1.616.561a1.245,1.245,0,0,1-1.3-.336,3.573,3.573,0,0,1-.691-1.8,10.121,10.121,0,0,1-.016-1.7,4.945,4.945,0,0,1,.91-2.729c.44-.585.781-1.231,1.169-1.846a20.344,20.344,0,0,1,3.072-3.659c.616-.6,1.258-1.18,1.87-1.787a7.736,7.736,0,0,0,.644-.787c.277-.357.541-.723.817-1.081a1.332,1.332,0,0,1,1-.587,1.277,1.277,0,0,0,.645-.146,1.328,1.328,0,0,1,1.665-.074,5.761,5.761,0,0,0,.56.255,1.248,1.248,0,0,1,.395.22,2.519,2.519,0,0,1,.711,1.609,2.613,2.613,0,0,1-.7,1.786c-.257.305-.565.574-.826.875a1.6,1.6,0,0,0-.2.405Z" transform="translate(-1297.691 -287.28)" fill="#fff"/>
      <path id="패스_26" data-name="패스 26" d="M1475.527,299.728c.092.021.426.08.745.17.391.111.773.245,1.156.374a1.9,1.9,0,0,1,1.365,1.284c.1.363.387.468.81.358a3.4,3.4,0,0,1,.853-.125,1.086,1.086,0,0,1,1.124,1.286,3.389,3.389,0,0,1-.827,1.692,15.907,15.907,0,0,1-3.305,2.977,12.806,12.806,0,0,1-3.419,1.6c-.071.024-.143.039-.214.056a2.043,2.043,0,0,1-2.808-1.758,5.639,5.639,0,0,1-.035-1c-.014-1,0-2.01-.042-3.007-.082-1.878,1.244-2.873,2.448-3.507a4.509,4.509,0,0,1,2.148-.4Zm-.24,6.372a2.62,2.62,0,0,0,1.687-1.1,1.171,1.171,0,0,0-.173-1.464,1.221,1.221,0,0,0-1.379-.034,2.342,2.342,0,0,0-1.135,1.745.848.848,0,0,0,1,.852Z" transform="translate(-1326.718 -286.015)" fill="#fff"/>
    </g>
    <g id="그룹_5" data-name="그룹 5" transform="translate(1289.779 307.939)">
      <path id="패스_27" data-name="패스 27" d="M1414.047,355.611a.668.668,0,0,0-.767-.166.655.655,0,0,0-.224.153.735.735,0,0,0-.148.231.753.753,0,0,0-.055.291.739.739,0,0,0,.055.28.811.811,0,0,0,.146.238.717.717,0,0,0,.22.17.6.6,0,0,0,.277.066.62.62,0,0,0,.283-.063.684.684,0,0,0,.215-.165.7.7,0,0,0,.14-.237.847.847,0,0,0,.047-.279.87.87,0,0,0-.047-.281.681.681,0,0,0-.14-.237Z" transform="translate(-1378.3 -355.17)" fill="#fff"/>
      <path id="패스_28" data-name="패스 28" d="M1421.543,355.611a.671.671,0,0,0-.768-.166.657.657,0,0,0-.224.153.734.734,0,0,0-.147.231.753.753,0,0,0-.055.291.739.739,0,0,0,.055.28.827.827,0,0,0,.146.238.709.709,0,0,0,.22.17.6.6,0,0,0,.276.066.621.621,0,0,0,.283-.063.692.692,0,0,0,.215-.165.715.715,0,0,0,.14-.237.853.853,0,0,0,.047-.279.877.877,0,0,0-.047-.281.7.7,0,0,0-.14-.237Z" transform="translate(-1380.714 -355.17)" fill="#fff"/>
      <path id="패스_29" data-name="패스 29" d="M1365.844,358.482h-2.619v-3.139h-1.33V362.7h1.33v-3.134h2.619V362.7h1.33v-7.357h-1.33v3.139Z" transform="translate(-1361.895 -355.154)" fill="#fff"/>
      <path id="패스_30" data-name="패스 30" d="M1375.025,362.809c-.056.011-.114.022-.174.031a1.017,1.017,0,0,1-.117.012.368.368,0,0,1-.13-.019.15.15,0,0,1-.068-.058.362.362,0,0,1-.046-.139,1.775,1.775,0,0,1-.016-.257v-2.215a1.545,1.545,0,0,0-.167-.737,1.477,1.477,0,0,0-.447-.512,1.976,1.976,0,0,0-.631-.292,2.829,2.829,0,0,0-.735-.095,2.892,2.892,0,0,0-1.079.205,2.7,2.7,0,0,0-.889.571l-.051.049.685.839.06-.062a4.076,4.076,0,0,1,.344-.317,1.836,1.836,0,0,1,.292-.194,1.114,1.114,0,0,1,.273-.1,1.26,1.26,0,0,1,.619.021.631.631,0,0,1,.241.145.672.672,0,0,1,.159.256,1.149,1.149,0,0,1,.059.391v.1c-.217,0-.433.013-.643.032a4.605,4.605,0,0,0-.676.113,2.769,2.769,0,0,0-.6.22,1.748,1.748,0,0,0-.479.358,1.594,1.594,0,0,0-.317.519,1.969,1.969,0,0,0-.114.7,1.806,1.806,0,0,0,.1.622,1.225,1.225,0,0,0,.287.455,1.212,1.212,0,0,0,.452.278,2.109,2.109,0,0,0,.975.063,2.078,2.078,0,0,0,.4-.1,2.125,2.125,0,0,0,.4-.2,2.213,2.213,0,0,0,.291-.22.755.755,0,0,0,.27.37.956.956,0,0,0,.583.174,1.737,1.737,0,0,0,.328-.03,1.8,1.8,0,0,0,.277-.074,1.561,1.561,0,0,0,.24-.109c.073-.041.144-.085.214-.132l.044-.029-.149-.656-.074.017Zm-1.818-1.671v1.376a1.648,1.648,0,0,1-.235.144,1.549,1.549,0,0,1-.255.1,1.42,1.42,0,0,1-.246.05,1.171,1.171,0,0,1-.457-.017.357.357,0,0,1-.157-.1.47.47,0,0,1-.1-.186,1.033,1.033,0,0,1-.039-.312,1.192,1.192,0,0,1,.068-.412.72.72,0,0,1,.234-.315,1.36,1.36,0,0,1,.477-.227,3.332,3.332,0,0,1,.715-.107Z" transform="translate(-1364.627 -356.18)" fill="#fff"/>
      <path id="패스_31" data-name="패스 31" d="M1381.836,359.322a1.744,1.744,0,0,0-.628-.578,2,2,0,0,0-.968-.216,1.613,1.613,0,0,0-.412.049,1.7,1.7,0,0,0-.329.122,1.5,1.5,0,0,0-.271.175c-.039.032-.077.064-.114.1-.007-.035-.014-.072-.023-.108a1.746,1.746,0,0,0-.058-.205l-.019-.051h-1.2l.026.1a1.5,1.5,0,0,1,.043.25c.01.1.017.2.022.288s.006.175.008.247,0,.119,0,.136v6.181h1.266v-2.228a1.518,1.518,0,0,0,.884.275,2,2,0,0,0,.976-.231,2.049,2.049,0,0,0,.688-.613,2.756,2.756,0,0,0,.4-.88,3.989,3.989,0,0,0,.133-1.033,4.624,4.624,0,0,0-.1-.954,2.434,2.434,0,0,0-.332-.821Zm-.9,1.756a3.829,3.829,0,0,1-.054.644,2.3,2.3,0,0,1-.165.555,1.08,1.08,0,0,1-.277.38.571.571,0,0,1-.388.136c-.084,0-.166,0-.248,0a1.114,1.114,0,0,1-.224-.031,1.067,1.067,0,0,1-.215-.077.887.887,0,0,1-.185-.122V359.8a1.727,1.727,0,0,1,.382-.161,1.154,1.154,0,0,1,.845.052.836.836,0,0,1,.3.3,1.556,1.556,0,0,1,.175.475,3.073,3.073,0,0,1,.058.614Z" transform="translate(-1367.02 -356.18)" fill="#fff"/>
      <path id="패스_32" data-name="패스 32" d="M1389.663,361.1a4.59,4.59,0,0,0-.1-.954,2.423,2.423,0,0,0-.331-.821,1.74,1.74,0,0,0-.628-.578,2,2,0,0,0-.969-.216,1.619,1.619,0,0,0-.412.049,1.7,1.7,0,0,0-.329.122,1.556,1.556,0,0,0-.27.175l-.113.1c-.006-.036-.014-.073-.023-.108a1.559,1.559,0,0,0-.059-.205l-.019-.051h-1.2l.026.1a1.64,1.64,0,0,1,.042.25c.01.1.017.2.021.288s.007.175.009.247,0,.119,0,.136v6.181h1.266v-2.228a1.518,1.518,0,0,0,.885.275,2,2,0,0,0,.975-.231,2.048,2.048,0,0,0,.688-.613,2.751,2.751,0,0,0,.4-.88,3.968,3.968,0,0,0,.133-1.033Zm-1.33-.019a3.713,3.713,0,0,1-.055.644,2.251,2.251,0,0,1-.165.555,1.076,1.076,0,0,1-.277.38.57.57,0,0,1-.387.136c-.084,0-.167,0-.247,0a1.11,1.11,0,0,1-.224-.031.993.993,0,0,1-.215-.077.911.911,0,0,1-.185-.122V359.8a1.738,1.738,0,0,1,.382-.161,1.158,1.158,0,0,1,.845.052.837.837,0,0,1,.3.3,1.538,1.538,0,0,1,.174.475,3.025,3.025,0,0,1,.059.614Z" transform="translate(-1369.401 -356.18)" fill="#fff"/>
      <path id="패스_33" data-name="패스 33" d="M1394.052,362.1l-1.006-3.458h-1.385l1.79,4.725a1.6,1.6,0,0,1-.037.187,1.258,1.258,0,0,1-.056.178c-.061.18-.124.345-.185.486a1.806,1.806,0,0,1-.194.346.732.732,0,0,1-.217.2.753.753,0,0,1-.482.051c-.081-.012-.159-.023-.235-.039a1.69,1.69,0,0,1-.207-.052c-.064-.021-.117-.04-.157-.058l-.081-.035-.25.865.047.032a2.327,2.327,0,0,0,.52.256,1.9,1.9,0,0,0,.635.106,1.818,1.818,0,0,0,.711-.124,1.437,1.437,0,0,0,.508-.358,2.332,2.332,0,0,0,.377-.568c.1-.216.217-.468.332-.753l1.821-5.34.035-.1h-1.382l-.9,3.458Z" transform="translate(-1371.377 -356.217)" fill="#fff"/>
      <path id="패스_34" data-name="패스 34" d="M1408.719,360.73a3.8,3.8,0,0,1-.276.376,1.3,1.3,0,0,1-.689.435,2.141,2.141,0,0,1-.538.059.978.978,0,0,1-.62-.215,1.874,1.874,0,0,1-.492-.614,3.694,3.694,0,0,1-.324-.936,5.631,5.631,0,0,1-.116-1.172,4.382,4.382,0,0,1,.1-.926,2.709,2.709,0,0,1,.3-.786,1.622,1.622,0,0,1,.5-.542,1.241,1.241,0,0,1,.708-.2,1.994,1.994,0,0,1,.386.035,1.326,1.326,0,0,1,.333.113,1.614,1.614,0,0,1,.307.2,2.769,2.769,0,0,1,.305.3l.063.071.742-.988-.046-.047a2.879,2.879,0,0,0-.453-.392,2.242,2.242,0,0,0-.489-.257,2.665,2.665,0,0,0-.536-.137,4.055,4.055,0,0,0-.6-.043,2.936,2.936,0,0,0-.954.147,2.561,2.561,0,0,0-.767.412,2.756,2.756,0,0,0-.581.627,3.652,3.652,0,0,0-.4.784,4.725,4.725,0,0,0-.232.9,6.116,6.116,0,0,0-.076.964,5.752,5.752,0,0,0,.184,1.472,3.833,3.833,0,0,0,.554,1.224,2.777,2.777,0,0,0,.923.839,2.592,2.592,0,0,0,1.284.311,4.894,4.894,0,0,0,.688-.045,2.088,2.088,0,0,0,.6-.179,2.447,2.447,0,0,0,.55-.367,4.393,4.393,0,0,0,.561-.611l.044-.056-.884-.833-.051.078Z" transform="translate(-1375.537 -355.065)" fill="#fff"/>
      <path id="패스_35" data-name="패스 35" d="M1412.935,363.762h1.267v-5.119h-1.267v5.119Z" transform="translate(-1378.327 -356.217)" fill="#fff"/>
      <path id="패스_36" data-name="패스 36" d="M1418.248,362.016a2.111,2.111,0,0,1-.373.117.753.753,0,0,1-.437,0,.221.221,0,0,1-.094-.093.65.65,0,0,1-.07-.205,1.8,1.8,0,0,1-.027-.338v-2.455h1.021l.122-1.011h-1.143v-1.282h-.96l-.295,1.3-.691.252v.739h.679v2.588a3.282,3.282,0,0,0,.06.654,1.285,1.285,0,0,0,.219.516,1.037,1.037,0,0,0,.427.333,1.683,1.683,0,0,0,.663.115,1.586,1.586,0,0,0,.61-.13,2.567,2.567,0,0,0,.624-.388l.045-.037-.31-.707-.07.029Z" transform="translate(-1379.089 -355.608)" fill="#fff"/>
      <path id="패스_37" data-name="패스 37" d="M1420.43,363.762h1.267v-5.119h-1.267v5.119Z" transform="translate(-1380.74 -356.217)" fill="#fff"/>
      <path id="패스_38" data-name="패스 38" d="M1426.785,359.528l.014-.019v-.865H1423v1.066h2.168l-2.239,3.177-.014.019v.856h3.942V362.7h-2.267l2.193-3.168Z" transform="translate(-1381.541 -356.217)" fill="#fff"/>
      <path id="패스_39" data-name="패스 39" d="M1432.678,362.147a3.376,3.376,0,0,1-.282.331,1.215,1.215,0,0,1-.266.2,1.009,1.009,0,0,1-.3.111,1.842,1.842,0,0,1-.387.035.688.688,0,0,1-.424-.136,1.262,1.262,0,0,1-.324-.358,1.841,1.841,0,0,1-.2-.465,1.8,1.8,0,0,1-.067-.375h2.87l.01-.064a3.423,3.423,0,0,0,.046-.406c.007-.128.012-.254.012-.374a2.832,2.832,0,0,0-.127-.872,1.833,1.833,0,0,0-.386-.674,1.7,1.7,0,0,0-.643-.429,2.453,2.453,0,0,0-.883-.148,2.152,2.152,0,0,0-.986.216,2.058,2.058,0,0,0-.7.574,2.423,2.423,0,0,0-.411.823,3.5,3.5,0,0,0-.133.97,3.962,3.962,0,0,0,.129,1.012,2.607,2.607,0,0,0,.406.872,2.051,2.051,0,0,0,.716.611,2.231,2.231,0,0,0,1.046.229,4.276,4.276,0,0,0,.535-.033,2.048,2.048,0,0,0,.515-.136,2.321,2.321,0,0,0,.506-.292,3.515,3.515,0,0,0,.523-.5l.049-.057-.792-.739-.051.068Zm-1.823-2.477a.807.807,0,0,1,.406-.091.743.743,0,0,1,.412.1.674.674,0,0,1,.232.256,1.034,1.034,0,0,1,.108.355c.013.108.021.213.024.315h-1.608a2.109,2.109,0,0,1,.041-.343,1.033,1.033,0,0,1,.135-.351.7.7,0,0,1,.251-.24Z" transform="translate(-1383.53 -356.18)" fill="#fff"/>
      <path id="패스_40" data-name="패스 40" d="M1440.256,359.015a1.626,1.626,0,0,0-.565-.361,1.973,1.973,0,0,0-1.134-.075,2.152,2.152,0,0,0-.388.133,2.262,2.262,0,0,0-.33.189c-.055.037-.1.075-.149.111-.006-.045-.014-.089-.024-.132l-.028-.124a.737.737,0,0,0-.028-.1l-.019-.051H1436.4l.016.092a3.08,3.08,0,0,1,.048.46c0,.153.007.279.007.376v4.19h1.267v-3.87a1.962,1.962,0,0,1,.209-.1c.093-.037.185-.068.276-.095a2.318,2.318,0,0,1,.271-.06,1.194,1.194,0,0,1,.581.033.556.556,0,0,1,.234.161.769.769,0,0,1,.149.3,1.92,1.92,0,0,1,.052.486v3.138h1.267v-3.363a2.028,2.028,0,0,0-.14-.77,1.694,1.694,0,0,0-.378-.577Z" transform="translate(-1385.88 -356.18)" fill="#fff"/>
      <path id="패스_41" data-name="패스 41" d="M1447.168,361.45a1.405,1.405,0,0,0-.256-.287,1.846,1.846,0,0,0-.283-.2,2.024,2.024,0,0,0-.275-.134l-.218-.087c-.12-.047-.24-.091-.362-.136s-.241-.09-.362-.137c-.075-.026-.149-.055-.222-.087a.855.855,0,0,1-.182-.105.51.51,0,0,1-.124-.136.319.319,0,0,1-.044-.173.5.5,0,0,1,.033-.184.387.387,0,0,1,.1-.151.546.546,0,0,1,.185-.107.836.836,0,0,1,.282-.041,1.523,1.523,0,0,1,.361.039,1.165,1.165,0,0,1,.288.114,1.472,1.472,0,0,1,.253.184c.084.075.169.159.254.25l.07.075.591-.98-.049-.043a2.26,2.26,0,0,0-.821-.462,3.365,3.365,0,0,0-.987-.137,2.522,2.522,0,0,0-.668.089,1.936,1.936,0,0,0-.586.263,1.424,1.424,0,0,0-.42.44,1.182,1.182,0,0,0-.16.619,1.486,1.486,0,0,0,.076.5,1.5,1.5,0,0,0,.478.675,2.294,2.294,0,0,0,.3.207,2.474,2.474,0,0,0,.3.147c.094.039.174.071.235.093.121.054.24.1.355.143s.225.086.346.139a1.427,1.427,0,0,1,.179.085.841.841,0,0,1,.156.113.458.458,0,0,1,.106.138.361.361,0,0,1,.039.172.544.544,0,0,1-.049.241.463.463,0,0,1-.134.161.594.594,0,0,1-.207.095,1.155,1.155,0,0,1-.276.032,1.715,1.715,0,0,1-1.291-.726l-.062-.074-.7.913.042.047a2.254,2.254,0,0,0,.435.388,2.181,2.181,0,0,0,.485.245,2.678,2.678,0,0,0,.535.128,4.541,4.541,0,0,0,.591.037,2.588,2.588,0,0,0,.7-.094,2.047,2.047,0,0,0,.61-.279,1.493,1.493,0,0,0,.441-.466,1.243,1.243,0,0,0,.169-.648,1.668,1.668,0,0,0-.071-.508,1.509,1.509,0,0,0-.182-.388Z" transform="translate(-1388.14 -356.18)" fill="#fff"/>
      <path id="패스_42" data-name="패스 42" d="M1460.717,360.3a7.26,7.26,0,0,0,.462-.908l.045-.109h-1.3l-.019.051q-.064.164-.124.313t-.126.293c-.045.1-.095.2-.15.3q-.06.114-.133.24l-.359-.425q-.225-.263-.448-.536t-.44-.542q-.186-.231-.356-.45c.163-.094.322-.2.474-.3a2.75,2.75,0,0,0,.479-.438,1.961,1.961,0,0,0,.334-.55,1.775,1.775,0,0,0,.119-.688,1.477,1.477,0,0,0-.136-.648,1.359,1.359,0,0,0-.369-.469,1.579,1.579,0,0,0-.542-.277,2.333,2.333,0,0,0-1.34.016,2.028,2.028,0,0,0-.628.32,1.708,1.708,0,0,0-.464.534,1.51,1.51,0,0,0-.181.748,1.782,1.782,0,0,0,.074.511,2.45,2.45,0,0,0,.194.47,3.053,3.053,0,0,0,.274.422,3.657,3.657,0,0,0,.252.3c-.159.1-.311.214-.456.329a2.6,2.6,0,0,0-.456.471,2.207,2.207,0,0,0-.316.61,2.461,2.461,0,0,0-.117.793,2.356,2.356,0,0,0,.157.879,1.818,1.818,0,0,0,.456.667,2.025,2.025,0,0,0,.719.418,2.912,2.912,0,0,0,.942.144,3.3,3.3,0,0,0,1.167-.2,2.7,2.7,0,0,0,.812-.47l.425.491h1.7l-1.26-1.365a10.559,10.559,0,0,0,.636-.945Zm-2.968,1.372a1.431,1.431,0,0,1-.842-.073.929.929,0,0,1-.336-.274,1.167,1.167,0,0,1-.194-.4,1.83,1.83,0,0,1-.063-.49,1.548,1.548,0,0,1,.054-.431,1.557,1.557,0,0,1,.33-.6l.151-.167c.141.165.279.332.412.5q.224.284.445.568c.147.191.3.38.448.567.134.165.276.331.424.49a1.316,1.316,0,0,1-.177.107,2.133,2.133,0,0,1-.309.126,2.345,2.345,0,0,1-.344.082Zm.106-4.634a1.2,1.2,0,0,1-.151.293,1.952,1.952,0,0,1-.23.26l-.226.208c-.057-.077-.11-.151-.159-.223a2.186,2.186,0,0,1-.161-.282,1.506,1.506,0,0,1-.1-.294,1.428,1.428,0,0,1-.037-.322.768.768,0,0,1,.051-.291.606.606,0,0,1,.134-.211.582.582,0,0,1,.2-.129.682.682,0,0,1,.249-.045.509.509,0,0,1,.179.033.358.358,0,0,1,.15.1.62.62,0,0,1,.115.206,1.021,1.021,0,0,1,.047.335,1.078,1.078,0,0,1-.055.36Z" transform="translate(-1391.859 -355.065)" fill="#fff"/>
      <path id="패스_43" data-name="패스 43" d="M1474.641,355.968a2.239,2.239,0,0,0-.8-.46,3.493,3.493,0,0,0-1.13-.165h-1.98V362.7h1.331v-2.785h.507a3.513,3.513,0,0,0,.981-.123,2.6,2.6,0,0,0,.722-.325,2.054,2.054,0,0,0,.5-.458,2.365,2.365,0,0,0,.305-.518,2.427,2.427,0,0,0,.154-.51,2.506,2.506,0,0,0,.045-.432,2.433,2.433,0,0,0-.156-.878,1.829,1.829,0,0,0-.477-.7Zm-2.581.458h.55a1.933,1.933,0,0,1,.646.094,1.111,1.111,0,0,1,.409.249.909.909,0,0,1,.221.36,1.473,1.473,0,0,1,.069.452,1.376,1.376,0,0,1-.1.535,1.086,1.086,0,0,1-.277.391,1.2,1.2,0,0,1-.434.241,1.84,1.84,0,0,1-.571.083l-.515,0v-2.409Z" transform="translate(-1396.933 -355.154)" fill="#fff"/>
      <path id="패스_44" data-name="패스 44" d="M1481.168,358.632a1.336,1.336,0,0,0-.2-.068,1.5,1.5,0,0,0-.371-.035,1.053,1.053,0,0,0-.427.1,1.92,1.92,0,0,0-.412.251,2.134,2.134,0,0,0-.354.355,1.985,1.985,0,0,0-.121.171c-.026-.25-.061-.5-.105-.734l-.011-.064h-1.138l.013.09c.006.036.01.087.014.157s.007.147.008.229l0,.285c0,.061,0,.112,0,.155v4.2h1.275l-.009-3.307a1.486,1.486,0,0,1,.431-.49,1.075,1.075,0,0,1,.637-.188,1,1,0,0,1,.216.024,1.034,1.034,0,0,1,.236.087l.089.045.275-1.238-.057-.026Z" transform="translate(-1399.285 -356.18)" fill="#fff"/>
      <path id="패스_45" data-name="패스 45" d="M1486.89,359.315a1.989,1.989,0,0,0-.724-.576,2.4,2.4,0,0,0-1.042-.21,2.466,2.466,0,0,0-1.052.21,2.134,2.134,0,0,0-.747.568,2.4,2.4,0,0,0-.442.827,3.336,3.336,0,0,0-.145.987,3.764,3.764,0,0,0,.155,1.114,2.423,2.423,0,0,0,.462.863,2.052,2.052,0,0,0,.757.557,2.569,2.569,0,0,0,1.028.2,2.137,2.137,0,0,0,1.691-.782,2.544,2.544,0,0,0,.454-.841,3.28,3.28,0,0,0,.156-1.018,3.956,3.956,0,0,0-.133-1.039,2.425,2.425,0,0,0-.418-.854Zm-2.235.317a.784.784,0,0,1,.435-.121.887.887,0,0,1,.468.117.951.951,0,0,1,.317.321,1.5,1.5,0,0,1,.18.486,3.136,3.136,0,0,1,.056.6,3.548,3.548,0,0,1-.063.679,2.328,2.328,0,0,1-.189.592,1.192,1.192,0,0,1-.317.41.682.682,0,0,1-.438.148.736.736,0,0,1-.459-.146,1.21,1.21,0,0,1-.326-.4,2.04,2.04,0,0,1-.188-.549,3.158,3.158,0,0,1,.008-1.275,1.793,1.793,0,0,1,.2-.528.99.99,0,0,1,.319-.34Z" transform="translate(-1400.799 -356.18)" fill="#fff"/>
      <path id="패스_46" data-name="패스 46" d="M1494.834,363.153a2.912,2.912,0,0,1-.026-.333v-4.177h-1.266v3.832a1.974,1.974,0,0,1-.552.231,2.639,2.639,0,0,1-.635.083.726.726,0,0,1-.238-.038.448.448,0,0,1-.181-.112.556.556,0,0,1-.125-.2.882.882,0,0,1-.049-.312v-3.479h-1.267v3.392a2.9,2.9,0,0,0,.08.7,1.5,1.5,0,0,0,.274.581,1.332,1.332,0,0,0,.519.393,1.968,1.968,0,0,0,.8.143,1.825,1.825,0,0,0,.4-.048,2.527,2.527,0,0,0,.413-.136,2.623,2.623,0,0,0,.391-.209,2.255,2.255,0,0,0,.235-.172l.032.148c.013.06.027.115.04.167s.023.088.028.106l.017.055h1.2l-.016-.09c-.033-.191-.058-.364-.076-.518Z" transform="translate(-1403.297 -356.217)" fill="#fff"/>
      <path id="패스_47" data-name="패스 47" d="M1502.455,362.183c-.039-.144-.071-.29-.1-.436s-.043-.287-.055-.432-.016-.279-.016-.4v-5.569h-1.267v2.368a1.561,1.561,0,0,0-.281-.125,1.851,1.851,0,0,0-.589-.083,2.106,2.106,0,0,0-.976.222,2.306,2.306,0,0,0-.729.588,2.634,2.634,0,0,0-.458.837,3.1,3.1,0,0,0-.157.981,3.736,3.736,0,0,0,.142,1.046,2.562,2.562,0,0,0,.417.844,2,2,0,0,0,.674.564,1.95,1.95,0,0,0,.9.206,1.543,1.543,0,0,0,.721-.167,1.726,1.726,0,0,0,.47-.367l.011.026a1.477,1.477,0,0,0,.081.154c.03.047.061.093.092.134a.651.651,0,0,0,.1.109l.021.018h1.186l-.047-.108a3.055,3.055,0,0,1-.143-.408Zm-1.435-3.464V361.5a1.627,1.627,0,0,1-.4.174,1.842,1.842,0,0,1-.459.054.73.73,0,0,1-.432-.13,1.092,1.092,0,0,1-.314-.361,1.89,1.89,0,0,1-.193-.53,3.056,3.056,0,0,1-.064-.624,2.231,2.231,0,0,1,.078-.6,1.6,1.6,0,0,1,.224-.486,1.1,1.1,0,0,1,.353-.324.947.947,0,0,1,.477-.119,1.7,1.7,0,0,1,.413.048,1.849,1.849,0,0,1,.321.112Z" transform="translate(-1405.658 -355.154)" fill="#fff"/>
      <path id="패스_48" data-name="패스 48" d="M1515.688,356.412a2.921,2.921,0,0,0-1.077-.782,4,4,0,0,0-1.6-.287h-1.762V362.7h1.716a4.443,4.443,0,0,0,1.159-.138,3.219,3.219,0,0,0,.906-.391,2.706,2.706,0,0,0,.671-.606,3.257,3.257,0,0,0,.449-.769,4.124,4.124,0,0,0,.251-.893,6.055,6.055,0,0,0,.078-.975,4.947,4.947,0,0,0-.187-1.37,3.072,3.072,0,0,0-.605-1.145Zm-3.105.015h.363a2.194,2.194,0,0,1,1,.208,1.842,1.842,0,0,1,.659.552,2.28,2.28,0,0,1,.367.793,3.78,3.78,0,0,1,.115.935,3.848,3.848,0,0,1-.169,1.2,2.353,2.353,0,0,1-.465.841,1.856,1.856,0,0,1-.7.494,2.353,2.353,0,0,1-.887.164h-.282v-5.189Z" transform="translate(-1409.979 -355.154)" fill="#fff"/>
      <path id="패스_49" data-name="패스 49" d="M1524.18,362.809c-.056.011-.113.022-.174.031a1.007,1.007,0,0,1-.118.012.367.367,0,0,1-.129-.019.144.144,0,0,1-.068-.058.35.35,0,0,1-.046-.139,1.689,1.689,0,0,1-.016-.257v-2.215a1.552,1.552,0,0,0-.168-.737,1.469,1.469,0,0,0-.446-.512,1.975,1.975,0,0,0-.632-.292,2.821,2.821,0,0,0-.734-.095,2.893,2.893,0,0,0-1.08.205,2.7,2.7,0,0,0-.889.571l-.052.049.686.839.061-.062a4.172,4.172,0,0,1,.343-.317,1.793,1.793,0,0,1,.292-.194,1.1,1.1,0,0,1,.273-.1,1.257,1.257,0,0,1,.618.021.62.62,0,0,1,.242.145.662.662,0,0,1,.159.256,1.143,1.143,0,0,1,.059.391v.1c-.216,0-.432.013-.643.032a4.419,4.419,0,0,0-.676.113,2.789,2.789,0,0,0-.6.22,1.746,1.746,0,0,0-.479.358,1.609,1.609,0,0,0-.317.519,1.978,1.978,0,0,0-.114.7,1.806,1.806,0,0,0,.1.622,1.245,1.245,0,0,0,.288.455,1.206,1.206,0,0,0,.452.278,2.09,2.09,0,0,0,.975.063,2.045,2.045,0,0,0,.4-.1,2.152,2.152,0,0,0,.4-.2,2.22,2.22,0,0,0,.29-.22.759.759,0,0,0,.271.37.956.956,0,0,0,.582.174,1.805,1.805,0,0,0,.605-.1,1.553,1.553,0,0,0,.241-.109c.073-.041.144-.085.214-.132l.044-.029-.148-.656-.075.017Zm-1.818-1.671v1.376a1.684,1.684,0,0,1-.235.144,1.522,1.522,0,0,1-.256.1,1.481,1.481,0,0,1-.246.05,1.16,1.16,0,0,1-.457-.017.356.356,0,0,1-.158-.1.485.485,0,0,1-.1-.186,1.062,1.062,0,0,1-.038-.312,1.2,1.2,0,0,1,.066-.412.72.72,0,0,1,.235-.315,1.355,1.355,0,0,1,.477-.227,3.307,3.307,0,0,1,.714-.107Z" transform="translate(-1412.647 -356.18)" fill="#fff"/>
      <path id="패스_50" data-name="패스 50" d="M1530.346,362.147a3.445,3.445,0,0,1-.282.331,1.2,1.2,0,0,1-.265.2,1.015,1.015,0,0,1-.3.111,1.844,1.844,0,0,1-.387.035.687.687,0,0,1-.424-.136,1.26,1.26,0,0,1-.324-.358,1.84,1.84,0,0,1-.2-.465,1.768,1.768,0,0,1-.067-.375h2.87l.01-.064a3.423,3.423,0,0,0,.046-.406c.008-.128.012-.254.012-.374a2.809,2.809,0,0,0-.128-.872,1.813,1.813,0,0,0-.386-.674,1.692,1.692,0,0,0-.642-.429,2.453,2.453,0,0,0-.883-.148,2.152,2.152,0,0,0-.986.216,2.054,2.054,0,0,0-.7.574,2.428,2.428,0,0,0-.412.823,3.506,3.506,0,0,0-.133.97,3.951,3.951,0,0,0,.129,1.012,2.6,2.6,0,0,0,.405.872,2.049,2.049,0,0,0,.716.611,2.229,2.229,0,0,0,1.046.229,4.284,4.284,0,0,0,.536-.033,2.035,2.035,0,0,0,.514-.136,2.321,2.321,0,0,0,.507-.292,3.5,3.5,0,0,0,.523-.5l.049-.057-.792-.739-.052.068Zm-1.823-2.477a.807.807,0,0,1,.406-.091.745.745,0,0,1,.412.1.678.678,0,0,1,.232.256,1.029,1.029,0,0,1,.108.355c.012.108.021.213.024.315H1528.1a2.193,2.193,0,0,1,.04-.343,1.049,1.049,0,0,1,.136-.351.693.693,0,0,1,.251-.24Z" transform="translate(-1414.974 -356.18)" fill="#fff"/>
      <path id="패스_51" data-name="패스 51" d="M1537.682,358.655a3.946,3.946,0,0,0-.685.157c-.095-.045-.182-.083-.26-.115a2.6,2.6,0,0,0-.26-.092,1.791,1.791,0,0,0-.281-.058,2.669,2.669,0,0,0-.336-.02,2.624,2.624,0,0,0-.8.117,1.812,1.812,0,0,0-.633.346,1.622,1.622,0,0,0-.418.557,1.835,1.835,0,0,0-.15.759,2.547,2.547,0,0,0,.036.441,1.508,1.508,0,0,0,.324.711,1.845,1.845,0,0,0,.211.218,1.9,1.9,0,0,0-.2.115,1.33,1.33,0,0,0-.256.22.981.981,0,0,0-.174.275.863.863,0,0,0-.063.329.874.874,0,0,0,.095.423,1.028,1.028,0,0,0,.225.283,1.3,1.3,0,0,0,.268.182l.1.055c-.078.049-.156.1-.229.153a1.67,1.67,0,0,0-.307.284,1.411,1.411,0,0,0-.219.368,1.246,1.246,0,0,0-.085.475.844.844,0,0,0,.125.45,1.03,1.03,0,0,0,.376.344,2.147,2.147,0,0,0,.621.215,4.512,4.512,0,0,0,.874.075c.184,0,.374-.008.568-.024a3.782,3.782,0,0,0,.584-.091,3.107,3.107,0,0,0,.547-.184,1.649,1.649,0,0,0,.464-.308,1.452,1.452,0,0,0,.321-.458,1.539,1.539,0,0,0,.12-.629,1.124,1.124,0,0,0-.093-.476,1.029,1.029,0,0,0-.253-.345,1.4,1.4,0,0,0-.367-.233,2.89,2.89,0,0,0-.43-.151c-.151-.041-.307-.075-.462-.1l-.455-.083-.287-.053c-.1-.02-.208-.041-.312-.064s-.2-.048-.3-.077a1.915,1.915,0,0,1-.253-.09.836.836,0,0,1-.168-.1c-.027-.021-.04-.041-.04-.058a.382.382,0,0,1,.056-.209.817.817,0,0,1,.1-.134,1.992,1.992,0,0,0,.38.118,3.147,3.147,0,0,0,.643.055,1.61,1.61,0,0,0,.59-.121,1.876,1.876,0,0,0,.562-.347,1.837,1.837,0,0,0,.422-.559,1.686,1.686,0,0,0,.166-.755,2.1,2.1,0,0,0-.085-.635,1.715,1.715,0,0,0-.1-.261l.7.121.218-1.059h-.095a5.03,5.03,0,0,0-.639.045Zm-2.916,5.837a1.132,1.132,0,0,1,.016-.188,1.051,1.051,0,0,1,.051-.192.959.959,0,0,1,.092-.183.633.633,0,0,1,.108-.129c.14.016.288.037.443.064.172.031.373.073.6.124.144.033.278.066.4.1a1.889,1.889,0,0,1,.305.107.588.588,0,0,1,.188.125.18.18,0,0,1,.056.132.609.609,0,0,1-.062.273.572.572,0,0,1-.207.218,1.271,1.271,0,0,1-.41.157,3.1,3.1,0,0,1-.658.06,1.02,1.02,0,0,1-.341-.06,1.132,1.132,0,0,1-.3-.157.82.82,0,0,1-.2-.218.429.429,0,0,1-.073-.232Zm.97-5.106a.653.653,0,0,1,.532.211,1.11,1.11,0,0,1,.185.717,3.621,3.621,0,0,1-.023.416,1.021,1.021,0,0,1-.091.334.544.544,0,0,1-.189.218.6.6,0,0,1-.333.081.676.676,0,0,1-.351-.085.71.71,0,0,1-.235-.229,1.049,1.049,0,0,1-.135-.343,2.032,2.032,0,0,1-.043-.422,1.024,1.024,0,0,1,.192-.68.613.613,0,0,1,.491-.216Z" transform="translate(-1417.171 -356.18)" fill="#fff"/>
      <path id="패스_52" data-name="패스 52" d="M1545.3,363.671c-.033-.191-.058-.364-.075-.518a2.932,2.932,0,0,1-.025-.333v-4.177h-1.267v3.832a1.96,1.96,0,0,1-.552.231,2.641,2.641,0,0,1-.635.083.723.723,0,0,1-.239-.038.45.45,0,0,1-.181-.112.547.547,0,0,1-.125-.2.878.878,0,0,1-.048-.312v-3.479h-1.267v3.392a2.912,2.912,0,0,0,.08.7,1.5,1.5,0,0,0,.275.581,1.345,1.345,0,0,0,.519.393,1.973,1.973,0,0,0,.8.143,1.828,1.828,0,0,0,.4-.048,2.558,2.558,0,0,0,.413-.136,2.644,2.644,0,0,0,.391-.209,2.077,2.077,0,0,0,.234-.172l.033.148c.013.06.027.115.039.167l.029.106.017.055h1.2l-.015-.09Z" transform="translate(-1419.52 -356.217)" fill="#fff"/>
    </g>
  </g>
</svg>
