<?xml version="1.0" encoding="utf-8"?>
<!-- Generator: Adobe Illustrator 27.0.1, SVG Export Plug-In . SVG Version: 6.00 Build 0)  -->
<svg version="1.1" id="레이어_1" xmlns="http://www.w3.org/2000/svg" xmlns:xlink="http://www.w3.org/1999/xlink" x="0px"
	 y="0px" viewBox="0 0 273.82 273.82" style="enable-background:new 0 0 273.82 273.82;" xml:space="preserve">
<style type="text/css">
	.st0{fill:#F7F7F7;}
	.st1{fill:#4F4F4F;}
	.st2{fill:#FFFFFF;}
	.st3{fill:#C7C8D4;}
</style>
<circle class="st0" cx="136.91" cy="136.91" r="136.91"/>
<g>
	<g>
		<path d="M170.35,79.83c0-0.52-0.02-1.04-0.05-1.55c-0.47-7.77-6.53-13.67-14.29-13.69c-21.42-0.05-42.85-0.02-64.27-0.01
			c-2.05,0-4.02,0.41-5.86,1.32c-5.79,2.84-8.47,7.57-8.46,13.96c0.01,38.05,0.01,76.1,0.01,114.15c0,0.61,0.02,1.22,0.07,1.83
			c0.37,4.83,2.65,8.52,6.67,11.2c1.7,1.14,3.67,1.56,5.54,2.23c22.32,0,44.65,0,66.97,0c0.44-0.36,0.95-0.33,1.47-0.24
			c1.33-0.09,2.59-0.49,3.77-1.08c5.78-2.86,8.47-7.58,8.46-13.97C170.35,155.93,170.36,117.88,170.35,79.83z M161.31,137.06
			c0,18.98,0,37.96,0,56.94c0,3.33-1.41,5.39-4.15,6.05c-0.59,0.14-1.21,0.16-1.82,0.16c-20.96,0.01-41.91,0.01-62.87,0
			c-3.9,0-6.02-2.1-6.02-6.02c-0.01-38.19-0.01-76.39,0-114.58c0-3.91,2.12-6,6.03-6c2.59,0,5.18,0.03,7.77-0.02
			c0.74-0.02,1.07,0.23,1.28,0.92c0.74,2.42,1.53,4.83,2.32,7.24c0.84,2.56,2.33,3.67,5.02,3.67c9.98,0.01,19.97,0.01,29.95,0
			c2.77,0,4.25-1.11,5.11-3.75c0.77-2.36,1.56-4.72,2.27-7.11c0.23-0.76,0.58-0.99,1.38-0.98c2.73,0.06,5.46,0,8.19,0.03
			c3.13,0.03,5.32,2.12,5.51,5.24c0.03,0.52,0.02,1.04,0.02,1.55C161.31,99.29,161.31,118.18,161.31,137.06z"/>
		<path class="st1" d="M156.66,209.26c0.47,0,0.94,0,1.41,0c0.03-0.08,0.05-0.16,0.06-0.24
			C157.67,209.27,157.11,208.93,156.66,209.26z"/>
		<path class="st1" d="M156.66,209.26c0.45-0.33,1.01,0.01,1.47-0.24C157.61,208.93,157.1,208.9,156.66,209.26z"/>
		<path d="M135.75,186.31c-3.91-0.02-7.81,0-11.72,0c-4,0-8-0.01-12,0c-2.83,0.01-4.79,1.82-4.82,4.41
			c-0.04,2.58,1.89,4.59,4.67,4.61c8,0.06,16,0.06,24,0c2.8-0.02,4.71-2.01,4.68-4.59C140.53,188.16,138.55,186.32,135.75,186.31z"
			/>
	</g>
	<g>
		<path class="st2" d="M164.06,173.77c-0.83,0-1.44-0.42-1.82-0.73c-2.44-1.97-4.89-3.92-7.34-5.87c-3.22-2.57-6.43-5.13-9.63-7.73
			c-5.29-4.3-7.97-9.96-7.96-16.82c0-2.94,0-5.89,0-8.83l0-7.77c0-3.64,0.01-7.28-0.02-10.92c-0.01-0.61-0.02-2.47,2.23-3.24
			c7.93-2.71,15.52-6.5,22.58-11.28c0.43-0.29,1.09-0.67,1.94-0.67c0.85,0,1.5,0.38,1.92,0.66c7.15,4.82,14.74,8.62,22.57,11.28
			c1.53,0.52,2.28,1.57,2.27,3.2c-0.02,5.09-0.02,10.18-0.01,15.27c0,4.18,0.01,8.37,0,12.55c-0.02,6.68-2.65,12.21-7.82,16.45
			c-3.39,2.77-6.86,5.55-10.22,8.23c-2.28,1.82-4.57,3.65-6.84,5.48C165.51,173.35,164.89,173.77,164.06,173.77L164.06,173.77z
			 M158.64,146.3c0.29,0,0.63-0.28,1.15-0.81l15.57-15.58c0.25-0.25,0.52-0.53,0.69-0.79c0.37-0.57,0.1-1.02-0.19-1.29
			c-0.21-0.2-0.47-0.31-0.73-0.31c-0.21,0-0.4,0.07-0.58,0.2c-0.23,0.17-0.47,0.42-0.73,0.68l-3.08,3.08
			c-3.4,3.4-6.81,6.8-10.18,10.22c-0.44,0.45-1.13,1.04-2.1,1.04c-1.03,0-1.71-0.65-2.14-1.14c-0.74-0.85-1.58-1.63-2.47-2.46
			c-0.35-0.33-0.71-0.51-1.02-0.51c-0.23,0-0.45,0.1-0.67,0.32c-0.23,0.22-0.76,0.74,0.19,1.72c1.03,1.05,2.07,2.1,3.12,3.14
			c0.69,0.68,1.37,1.37,2.05,2.05c0.41,0.41,0.65,0.45,0.85,0.45c0.01,0,0.03,0,0.06,0C158.51,146.3,158.64,146.3,158.64,146.3z"/>
		<path class="st3" d="M187.98,113.46c-8.18-2.78-15.82-6.65-22.98-11.48c-0.74-0.5-1.22-0.49-1.96,0.01
			c-7.15,4.84-14.81,8.69-22.98,11.48c-0.88,0.3-1.08,0.74-1.07,1.62c0.05,4.9,0.02,9.79,0.02,14.69c0,4.28,0,8.57,0,12.85
			c-0.01,6.33,2.44,11.52,7.34,15.5c5.62,4.57,11.32,9.05,16.96,13.6c0.59,0.48,0.94,0.46,1.53-0.01
			c5.67-4.58,11.41-9.08,17.05-13.71c4.75-3.89,7.18-8.97,7.19-15.14c0.02-9.27-0.02-18.55,0.02-27.82
			C189.1,114.14,188.82,113.75,187.98,113.46z M177.49,130.04c-0.25,0.39-0.58,0.74-0.91,1.07c-5.19,5.2-10.38,10.39-15.57,15.58
			c-0.71,0.71-1.44,1.37-2.51,1.3c-0.9,0.03-1.57-0.35-2.15-0.95c-1.72-1.74-3.47-3.45-5.18-5.2c-1.32-1.36-1.37-2.94-0.17-4.12
			c1.14-1.12,2.71-1.07,4.03,0.16c0.9,0.83,1.8,1.67,2.6,2.59c0.64,0.74,1.05,0.73,1.74,0.02c4.33-4.39,8.7-8.74,13.06-13.1
			c0.37-0.37,0.72-0.75,1.13-1.06c1.08-0.8,2.51-0.68,3.48,0.24C178.04,127.54,178.23,128.89,177.49,130.04z"/>
		<path d="M164.07,180.37c-1.35,0-2.46-0.74-3.36-1.46l-4.78-3.82c-4.62-3.69-9.24-7.39-13.85-11.09
			c-6.83-5.48-10.31-12.68-10.34-21.41c-0.03-7.28-0.02-14.56-0.01-21.85l0.01-8.11c0-2.95,1.02-4.37,3.77-5.25
			c9.01-2.87,17.59-7.17,25.5-12.77c0.77-0.54,1.81-1.17,3.04-1.17c1.2,0,2.19,0.58,2.91,1.08c8.14,5.7,16.8,10.03,25.76,12.87
			c2.61,0.83,3.68,2.33,3.68,5.2c0,3.77,0.01,19.97,0.01,19.97c0,3.28,0.01,6.57-0.01,9.85c-0.04,8.88-3.55,16.16-10.43,21.67
			c0,0-13.08,10.47-18.52,14.81C166.54,179.63,165.43,180.37,164.07,180.37C164.07,180.37,164.07,180.37,164.07,180.37z
			 M140.69,115.07c0.03,3.65,0.03,7.31,0.03,10.96l0,7.76c0,2.95,0,5.89,0,8.84c-0.01,5.86,2.19,10.5,6.71,14.17
			c3.19,2.59,6.4,5.15,9.6,7.71c2.35,1.87,4.7,3.75,7.04,5.63c2.18-1.76,4.37-3.51,6.56-5.25c3.35-2.68,6.82-5.44,10.19-8.2
			c4.35-3.56,6.56-8.21,6.57-13.83c0.01-4.18,0.01-8.36,0-12.55c0-5.09-0.01-10.17,0.01-15.26c-8.11-2.76-15.96-6.68-23.35-11.67
			c-0.01,0-0.01-0.01-0.02-0.01c-0.01,0.01-0.02,0.01-0.03,0.02c-7.28,4.93-15.13,8.85-23.31,11.65
			C140.69,115.06,140.69,115.07,140.69,115.07z"/>
		<path d="M194.71,112.6c0-2.07-0.57-2.97-2.5-3.58c-9.44-2.98-18.14-7.42-26.23-13.1c-1.52-1.07-2.42-1.03-3.99,0.08
			c-7.99,5.66-16.63,10.02-25.97,13c-2.05,0.66-2.59,1.44-2.59,3.63c0,9.98-0.03,19.97,0.01,29.95c0.03,8.23,3.28,14.94,9.7,20.09
			c6.2,4.98,12.42,9.94,18.63,14.9c1.81,1.45,2.78,1.45,4.62-0.01c6.18-4.93,12.35-9.87,18.52-14.81
			c6.52-5.22,9.75-12.02,9.79-20.35c0.02-4.76,0-9.51,0-14.27C194.71,122.96,194.71,117.78,194.71,112.6z M189.08,142.87
			c-0.02,6.16-2.45,11.25-7.19,15.14c-5.64,4.62-11.38,9.12-17.05,13.71c-0.58,0.47-0.93,0.49-1.53,0.01
			c-5.64-4.55-11.34-9.03-16.96-13.6c-4.9-3.98-7.34-9.17-7.34-15.5c0.01-4.28,0-8.57,0-12.85c0-4.9,0.02-9.79-0.02-14.69
			c-0.01-0.88,0.2-1.32,1.07-1.62c8.17-2.79,15.83-6.64,22.98-11.48c0.74-0.5,1.22-0.51,1.96-0.01c7.16,4.83,14.8,8.7,22.98,11.48
			c0.84,0.29,1.12,0.67,1.12,1.58C189.06,124.32,189.1,133.6,189.08,142.87z"/>
		<path d="M158.39,149.7c-1.23,0-2.3-0.47-3.26-1.45c-0.68-0.68-1.36-1.36-2.04-2.04c-1.06-1.05-2.11-2.1-3.15-3.17
			c-1.96-2-2.02-4.69-0.14-6.52c0.86-0.84,1.92-1.29,3.05-1.29c1.18,0,2.34,0.49,3.33,1.42c0.78,0.73,1.59,1.48,2.34,2.29
			c3.26-3.31,6.55-6.59,9.84-9.87l3.06-3.06c0.32-0.33,0.69-0.7,1.13-1.03c0.76-0.57,1.66-0.86,2.6-0.86c1.13,0,2.22,0.44,3.07,1.24
			c1.61,1.53,1.89,3.78,0.7,5.62c-0.35,0.54-0.77,0.98-1.14,1.34L162.2,147.9c-0.67,0.67-1.8,1.8-3.56,1.8
			C158.64,149.7,158.4,149.7,158.39,149.7z"/>
		<path d="M173.56,126.35c-0.41,0.31-0.77,0.69-1.13,1.06c-4.36,4.36-8.74,8.71-13.06,13.1c-0.7,0.71-1.1,0.72-1.74-0.02
			c-0.8-0.92-1.7-1.76-2.6-2.59c-1.32-1.23-2.89-1.28-4.03-0.16c-1.2,1.18-1.16,2.76,0.17,4.12c1.71,1.75,3.46,3.46,5.18,5.2
			c0.59,0.59,1.26,0.98,2.15,0.95c1.07,0.07,1.79-0.59,2.51-1.3c5.19-5.2,10.38-10.39,15.57-15.58c0.33-0.33,0.66-0.68,0.91-1.07
			c0.75-1.15,0.55-2.5-0.45-3.45C176.06,125.67,174.63,125.55,173.56,126.35z"/>
	</g>
</g>
</svg>
