<svg id="save_time" data-name="save time" xmlns="http://www.w3.org/2000/svg" viewBox="0 0 80 67.545">
  <defs>
    <style>
      .cls-1 {
        fill: #424242;
      }

      .cls-2 {
        fill: #17b;
      }
    </style>
  </defs>
  <path id="Path_608" data-name="Path 608" d="M128.773,27.677l-5.329-5.329a1.27,1.27,0,1,0-1.8,1.8l1.8,1.8-1.68,1.68c.637.579,1.217,1.159,1.8,1.8l1.68-1.68,1.8,1.8a1.277,1.277,0,0,0,.869.348,1.179,1.179,0,0,0,.869-.348A1.292,1.292,0,0,0,128.773,27.677Z" transform="translate(-51.032 -9.256)"/>
  <path id="Path_609" data-name="Path 609" d="M89.834,0H78.074A1.286,1.286,0,0,0,76.8,1.274V6.72a1.286,1.286,0,0,0,1.274,1.274h4.634V10.6a.434.434,0,0,0,.058.29c.406,0,.811-.058,1.217-.058a8.555,8.555,0,0,1,1.217.058,2.509,2.509,0,0,1,.058-.29V7.994h4.634A1.286,1.286,0,0,0,91.166,6.72V1.274A1.379,1.379,0,0,0,89.834,0ZM88.618,5.445H79.291V2.491h9.327Z" transform="translate(-32.31)"/>
  <path id="Path_610" data-name="Path 610" d="M7.415,81.091H1.274A1.237,1.237,0,0,1,0,79.874,1.286,1.286,0,0,1,1.274,78.6h6.14a1.246,1.246,0,1,1,0,2.491Z" transform="translate(0 -33.068)"/>
  <path id="Path_611" data-name="Path 611" d="M72.119,18.7A28.43,28.43,0,0,0,50.106,29.185c.985.116,1.97.29,2.9.463a25.844,25.844,0,1,1-1.564,32.846c-.927.116-1.854.232-2.839.348A28.333,28.333,0,1,0,72.119,18.7Z" transform="translate(-20.446 -7.867)"/>
  <g id="Group_499" data-name="Group 499" transform="translate(46.575 34.12)">
    <path id="Path_612" data-name="Path 612" class="cls-1" d="M85.556,69.211a5.156,5.156,0,1,1,5.156-5.156A5.167,5.167,0,0,1,85.556,69.211Zm0-7.994a2.839,2.839,0,1,0,2.839,2.839A2.843,2.843,0,0,0,85.556,61.217Z" transform="translate(-80.4 -58.9)"/>
  </g>
  <path id="Path_613" data-name="Path 613" class="cls-1" d="M106.879,65.7H97.9a4.139,4.139,0,0,1,.116,1.217,6.415,6.415,0,0,1-.116,1.1h8.921a1.162,1.162,0,0,0,1.159-1.159A1.08,1.08,0,0,0,106.879,65.7Z" transform="translate(-41.187 -27.641)"/>
  <g id="Group_500" data-name="Group 500" transform="translate(29.544 17.031)">
    <path id="Path_614" data-name="Path 614" class="cls-2" d="M73.187,73.658A22.129,22.129,0,1,1,94.678,46.489a1.159,1.159,0,0,1-2.259.521A19.772,19.772,0,1,0,92.651,55a1.148,1.148,0,1,1,2.259.406A21.962,21.962,0,0,1,73.187,73.658Z" transform="translate(-51 -29.4)"/>
  </g>
  <path id="Path_615" data-name="Path 615" d="M39.321,78.6H22.174a1.274,1.274,0,1,0,0,2.549H40.248A15.039,15.039,0,0,1,39.321,78.6Z" transform="translate(-8.793 -33.068)"/>
  <path id="Path_616" data-name="Path 616" d="M40.272,65.875c0-.753.058-1.506.116-2.259a1.091,1.091,0,0,0-.463-.116H26.774a1.274,1.274,0,1,0,0,2.549h13.15a.735.735,0,0,0,.348-.058Z" transform="translate(-10.728 -26.715)"/>
  <path id="Path_617" data-name="Path 617" d="M49.642,47.9H41.474a1.274,1.274,0,1,0,0,2.549H48.31C48.716,49.58,49.179,48.711,49.642,47.9Z" transform="translate(-16.913 -20.152)"/>
</svg>
