<svg xmlns="http://www.w3.org/2000/svg" viewBox="0 0 80 66.684"><defs><style>.a,.b{fill:none;stroke-miterlimit:10;stroke-width:2px;}.a{stroke:#000;}.b{stroke:#17b;}</style></defs><g transform="translate(-1340 -3255.883)"><g transform="translate(1340 3249)"><path d="M73.394,19.9H6.675A6.7,6.7,0,0,0,0,26.575V66.592a6.7,6.7,0,0,0,6.675,6.675H38.357v10H26.667a1.66,1.66,0,1,0,0,3.32H53.333a1.66,1.66,0,1,0,0-3.32H41.643v-10H73.324A6.679,6.679,0,0,0,80,66.592V26.575A6.62,6.62,0,0,0,73.394,19.9Zm3.32,46.692a3.321,3.321,0,0,1-3.32,3.32H6.675a3.321,3.321,0,0,1-3.32-3.32V26.575a3.321,3.321,0,0,1,3.32-3.32H73.394a3.321,3.321,0,0,1,3.32,3.32Z" transform="translate(0 -13.017)"/></g><g transform="translate(1361.988 3267.988)"><path class="a" d="M38.5,29.051a2.172,2.172,0,0,1-2.153,2.228h-20.2A2.172,2.172,0,0,1,14,29.051V16.428A2.172,2.172,0,0,1,16.153,14.2H36.276a2.172,2.172,0,0,1,2.153,2.228V29.051Z" transform="translate(-3.344 -3.395)"/><path class="b" d="M9.171,23.725l-.817.3a2.226,2.226,0,0,1-2.9-1.337L1.152,10.8A2.234,2.234,0,0,1,2.488,7.983l18.86-6.831A2.205,2.205,0,0,1,24.17,2.488L26.695,9.32" transform="translate(0 0)"/><line class="a" x1="24.504" transform="translate(10.656 14.517)"/><line class="a" x1="24.504" transform="translate(10.656 18.23)"/><line class="a" x2="5.198" transform="translate(12.884 21.2)"/></g></g></svg>