<svg xmlns="http://www.w3.org/2000/svg" viewBox="0 0 81.056 78.352">
  <defs>
    <style>
      .cls-1 {
        fill: #17b;
      }

      .cls-2 {
        fill: #12172b;
        stroke: #000;
      }
    </style>
  </defs>
  <g id="save_hassle" data-name="save hassle" transform="translate(80.557 77.83) rotate(180)">
    <path id="Path_618" data-name="Path 618" class="cls-1" d="M35.32,17.35h0A1.954,1.954,0,0,1,33.5,15.533a.878.878,0,0,0-.795-.908h0a.964.964,0,0,0-.908.795,3.523,3.523,0,0,0,1.022,2.5,3.237,3.237,0,0,0,1.59.908v.681a.878.878,0,0,0,.795.908h0a.964.964,0,0,0,.908-.795V18.94a3.237,3.237,0,0,0,1.59-.908,3.339,3.339,0,0,0,1.022-2.5,3.516,3.516,0,0,0-3.407-3.52,1.768,1.768,0,0,1-1.249-3.066A2.521,2.521,0,0,1,35.32,8.38a1.94,1.94,0,0,1,1.817,1.7.854.854,0,0,0,1.7-.114,3.4,3.4,0,0,0-2.612-3.18V6.108a.878.878,0,0,0-.795-.908h0a.964.964,0,0,0-.908.795v.681a3.237,3.237,0,0,0-1.59.908,3.339,3.339,0,0,0-1.022,2.5,3.523,3.523,0,0,0,1.022,2.5,3.339,3.339,0,0,0,2.5,1.022,1.794,1.794,0,0,1,1.817,1.817,1.824,1.824,0,0,1-.568,1.249A1.6,1.6,0,0,1,35.32,17.35Z" transform="translate(4.307 0.703)"/>
    <path id="Path_619" data-name="Path 619" class="cls-1" d="M58.82,38.85h0A1.954,1.954,0,0,1,57,37.033a.854.854,0,1,0-1.7-.114,3.523,3.523,0,0,0,1.022,2.5,3.237,3.237,0,0,0,1.59.908v.681a.878.878,0,0,0,.795.908h0a.964.964,0,0,0,.908-.795V40.44a3.237,3.237,0,0,0,1.59-.908,3.339,3.339,0,0,0,1.022-2.5,3.523,3.523,0,0,0-1.022-2.5,3.339,3.339,0,0,0-2.5-1.022,1.768,1.768,0,0,1-1.249-3.066,2.521,2.521,0,0,1,1.249-.568,1.94,1.94,0,0,1,1.817,1.7.854.854,0,0,0,1.7-.114,3.4,3.4,0,0,0-2.612-3.18v-.681a.878.878,0,0,0-.795-.908h0a.964.964,0,0,0-.908.795v.681a3.237,3.237,0,0,0-1.59.908,3.339,3.339,0,0,0-1.022,2.5,3.523,3.523,0,0,0,1.022,2.5,3.339,3.339,0,0,0,2.5,1.022,1.768,1.768,0,0,1,1.249,3.066A1.316,1.316,0,0,1,58.82,38.85Z" transform="translate(7.492 3.618)"/>
    <path id="Path_620" data-name="Path 620" class="cls-2" d="M79.6,34.633a13.881,13.881,0,0,0-6.359-8.4,13.249,13.249,0,0,0-6.132-1.817.854.854,0,1,0-.114,1.7,12.192,12.192,0,0,1,5.337,1.59A11.947,11.947,0,0,1,77.9,34.973a12.088,12.088,0,0,1-1.249,9.084,11.9,11.9,0,0,1-16.352,4.2,11.035,11.035,0,0,1-3.407-3.066h0a14.425,14.425,0,0,1-2.044-4.2,12.088,12.088,0,0,1,1.249-9.084,11.7,11.7,0,0,1,5.564-4.883.865.865,0,1,0-.681-1.59A13.224,13.224,0,0,0,54.617,31,13.741,13.741,0,0,0,53.14,41.333a11.783,11.783,0,0,0,1.93,4.2L40.309,57.344V50.417h0l.114-23.165a14.575,14.575,0,0,0,6.018-1.7A13.655,13.655,0,0,0,32.928,1.815a.811.811,0,0,0-.341,1.136.811.811,0,0,0,1.136.341,12,12,0,1,1-3.974,3.634.881.881,0,0,0-.227-1.136.881.881,0,0,0-1.136.227,13.7,13.7,0,0,0-.568,14.535,13.456,13.456,0,0,0,10.9,6.813l-.114,23.279h0v6.927L24.524,46.556c.341-.454.681-1.022,1.022-1.476a13.781,13.781,0,0,0,1.817-5.9.854.854,0,1,0-1.7-.114,12.669,12.669,0,0,1-1.59,5.224,12.016,12.016,0,1,1-13.4-17.828,12.088,12.088,0,0,1,9.084,1.249,12.292,12.292,0,0,1,4.883,5.337.865.865,0,0,0,1.59-.681,12.71,12.71,0,0,0-5.564-6.132A13.741,13.741,0,0,0,10.33,24.754a13.881,13.881,0,0,0-8.4,6.359A13.741,13.741,0,0,0,.451,41.446,13.884,13.884,0,0,0,13.737,51.78a13.671,13.671,0,0,0,9.652-3.974l15.216,11.81v6.7a10.18,10.18,0,0,0-9.2,9.2H12.374a.908.908,0,0,0,0,1.817H66.313a.908.908,0,0,0,0-1.817H31a8.356,8.356,0,0,1,16.011-2.385.865.865,0,0,0,1.59-.681,10.112,10.112,0,0,0-8.4-6.132v-6.7l15.784-12.6a11.962,11.962,0,0,0,3.407,2.839,13.869,13.869,0,0,0,6.927,1.93,13.656,13.656,0,0,0,11.81-6.7A14.027,14.027,0,0,0,79.6,34.633Z" transform="translate(0 0)"/>
    <path id="Path_621" data-name="Path 621" class="cls-1" d="M12.52,29.98a1.94,1.94,0,0,1,1.817,1.7.854.854,0,1,0,1.7-.114,3.4,3.4,0,0,0-2.612-3.18v-.681a.878.878,0,0,0-.795-.908h0a.964.964,0,0,0-.908.795v.681a3.237,3.237,0,0,0-1.59.908A3.45,3.45,0,0,0,9,31.8a3.523,3.523,0,0,0,1.022,2.5,3.339,3.339,0,0,0,2.5,1.022,1.954,1.954,0,0,1,1.817,1.817A1.794,1.794,0,0,1,12.52,38.95h0A1.794,1.794,0,0,1,10.7,37.133a.878.878,0,0,0-.795-.908h0A.964.964,0,0,0,9,37.02a3.647,3.647,0,0,0,2.612,3.407v.681a.878.878,0,0,0,.795.908h0a.964.964,0,0,0,.908-.795V40.54a3.237,3.237,0,0,0,1.59-.908,3.339,3.339,0,0,0,1.022-2.5,3.516,3.516,0,0,0-3.407-3.52,1.768,1.768,0,0,1-1.249-3.066A1.627,1.627,0,0,1,12.52,29.98Z" transform="translate(1.217 3.631)"/>
  </g>
</svg>
